<svg width="164" height="264" viewBox="0 0 164 264" fill="none" xmlns="http://www.w3.org/2000/svg">
<path fill-rule="evenodd" clip-rule="evenodd" d="M0 0H163.268V263.156H0V0ZM115.883 261.48C109.812 250.409 100.215 232.375 99.9308 232.231C96.3818 234.132 60.2012 239.003 42.7982 234.286C36.8465 243.279 31.0023 252.185 25.8203 261.098L115.883 261.48ZM60.3156 228.366C59.4054 228.387 58.3902 228.945 58.5775 228.459C58.6858 228.178 58.9429 225.339 59.0552 224.324C59.3274 223.872 59.7107 225.057 59.667 226.156C59.642 226.787 59.9435 226.337 62.004 226.445C64.2327 226.563 66.0587 226.983 66.8149 227.148C69.4507 227.721 74.55 227.309 76.7351 225.711C77.918 224.846 78.3655 225.78 77.146 226.709C71.6391 230.902 67.273 229.303 62.4888 228.6C61.7758 228.495 61.0543 228.35 60.3156 228.366ZM62.6571 224.388C62.3147 224.164 62.0897 224.141 61.6516 224.346C59.9616 225.139 60.4036 224.002 61.6206 222.857C62.1766 222.334 62.1606 222.067 61.7383 221.518C61.5246 221.24 61.1678 221.205 61.2527 220.788C61.6184 218.991 64.1294 216.273 66.9358 215.059C68.1033 214.553 68.288 215.106 66.8117 215.978C64.5414 217.318 63.8071 218.462 65.0913 217.996C67.581 217.094 69.8522 217.731 73.0378 219.328C73.9479 219.784 74.3648 219.873 75.1391 219.79C75.7113 219.313 76.2237 219.886 76.5784 220.186C76.8012 220.366 76.8488 220.452 77.1025 220.392C78.9156 219.964 77.8291 221.125 75.3513 222.941C70.9137 226.092 66.0731 227.578 62.6571 224.388ZM69.4848 225.163C71.2984 224.614 73.5105 223.467 74.867 222.271C76.5159 220.818 75.5833 221.039 73.6886 221.955C70.9463 223.281 69.0262 223.664 65.9412 223.593C63.359 223.534 63.44 223.429 63.346 223.752C63.0157 224.886 66.5693 226.045 69.4848 225.163ZM64.4746 220.733C64.6219 220.245 64.7346 219.594 64.6028 219.382C64.364 218.999 63.8506 219.282 63.1978 220.11C62.7934 220.623 62.849 220.693 63.2448 221.097C63.4437 221.233 63.5962 221.334 63.716 221.403C64.2671 221.639 64.3553 221.126 64.4746 220.733ZM65.6034 221.403C66.3978 218.689 68.1755 218.742 69.444 221.339L70.3385 221.344C68.4995 216.291 64.9388 218.85 64.8198 221.363C65.239 221.503 65.6034 221.403 65.6034 221.403ZM72.2457 220.946C73.0851 220.476 72.9619 220.156 71.8926 219.603C71.1327 219.209 70.7305 219.13 70.5924 219.384C70.6024 219.943 70.6254 220.744 70.948 221.188C71.2828 221.393 71.7439 221.191 72.2457 220.946ZM60.479 213.216C60.3253 212.961 60.3524 212.495 60.9363 212.224C64.5369 210.55 61.9133 207.019 59.1336 209.668C58.2521 210.394 56.941 210.731 55.9285 210.299C54.9761 209.882 54.9584 208.714 56.2234 208.464C56.6385 208.383 57.7037 208.156 58.0968 207.882C62.9293 205.286 65.4959 210.929 62.0671 212.808C61.3623 213.22 60.6146 213.451 60.479 213.216ZM46.9411 208.092C44.9797 207.201 44.7111 204.104 46.5492 202.898C47.7192 202.095 48.9155 201.876 52.1382 203.477C54.4144 204.607 55.7174 203.39 55.6586 204.705C55.6226 205.505 55.5756 206.311 54.252 206.504C52.101 206.817 50.6325 203.888 47.8696 204.164C45.8761 204.364 46.1286 206.756 47.569 207.243C49.4886 207.891 48.3247 208.659 46.9411 208.092ZM83.0029 208.542C82.6426 208.712 82.4738 207.921 82.6295 207.499C83.61 205.167 84.5115 203.312 85.4 201.127C86.1088 199.385 86.5843 198.637 86.9024 198.639C87.2273 198.641 87.378 198.896 86.8344 199.968C86.0127 202.131 83.007 208.727 83.0029 208.542ZM66.9003 207.938C66.0328 207.318 66.1791 206.398 67.1664 207.094C68.4351 207.989 70.515 206.351 70.0908 204.806C69.5783 202.938 67.1049 202.485 65.0342 204.158C61.7675 206.797 58.1835 206.931 58.1836 204.869C58.1936 204.279 58.1076 204.145 59.4666 204.053C61.0471 203.946 62.8298 203.219 63.7158 202.677C67.6898 200.247 71.9174 201.925 71.0419 205.98C70.6469 207.893 68.3107 208.819 66.9003 207.938ZM52.3295 201.953C52.0071 201.943 51.4174 202.269 51.2484 202.142C50.9176 201.894 50.9655 201.175 50.6934 200.404C50.2106 199.037 50.6814 199.464 51.5311 199.834C52.6851 200.282 53.7784 200.195 54.7517 199.856C55.7555 199.506 57.0728 199.586 59.1811 199.862C60.8771 200.084 61.8298 200.02 63.3693 199.578C65.0399 199.053 64.5977 199.242 64.319 200.276C64.1378 200.954 63.9091 201.864 63.6968 202.083C62.5419 201.433 61.6649 201.685 60.9058 202.127C59.6585 202.678 58.7743 202.773 57.753 202.466C56.7922 201.917 56.2219 201.962 55.45 202.436C54.1202 203.083 53.5301 202.014 52.3295 201.953ZM77.2424 199.11C77.4764 198.698 77.8165 198.13 78.1362 197.492C80.7173 192.346 80.8935 190.915 79.0716 189.182C76.6232 186.852 74.5365 187.862 72.1908 192.515C71.6214 193.644 71.2809 194.493 71.0509 194.841C70.7857 195.243 70.476 194.933 70.3232 194.777C70.034 194.481 72.6371 189.542 73.6574 188.464C76.3278 185.643 81.2899 187.9 80.974 191.737C80.8149 193.67 80.4488 194.729 78.6881 198.273C78.2523 199.15 77.874 199.893 77.6433 200.251C76.8173 200.806 77.0061 199.532 77.2424 199.11ZM52.9133 198.906C53.3209 197.073 59.1737 196.225 60.7161 198.628C60.8668 198.863 60.7781 198.853 60.1165 198.671C57.1406 197.684 56.5503 197.738 53.6992 198.869C53.2706 199.035 52.9657 199.103 52.9133 198.906ZM75.2452 198.557C75.2452 198.385 75.4629 197.708 75.7935 197.052C77.745 193.18 78.2831 192.246 77.6878 191.522C76.528 190.111 74.9702 191.338 73.5386 195.381C73.0035 196.892 72.6388 196.57 72.3779 196.331C71.8779 195.874 74.0912 191.17 75.1583 190.469C77.5776 188.924 79.4819 190.712 78.4128 193.871C77.5786 195.298 76.8897 197.492 76.1108 198.647C75.741 199.165 75.2424 199.011 75.2452 198.557ZM66.4934 192.269C66.3757 192.073 66.6041 191.811 67.4423 190.008C68.5946 187.529 68.952 186.61 68.4838 185.195C67.6493 182.673 64.5035 182.055 62.5924 183.71C61.9672 184.244 61.5431 184.983 61.2484 185.647C60.5579 187.184 59.9824 189.172 59.5732 189.589C59.2156 189.951 58.7163 190.025 58.749 189.393C59.2032 188.055 59.4177 187.017 60.4918 185.056C63.1694 179.214 70.8875 181.919 69.081 188.068C68.4094 190.3 67.6368 191.991 67.1799 192.54C66.9257 192.845 66.5039 192.58 66.4934 192.269ZM64.7022 191.196C64.7022 191.004 64.9927 190.456 65.3001 189.692C66.6053 186.451 66.6139 185.458 64.7113 185.416C63.5735 185.563 63.4045 186.031 62.4054 188.588C62.0809 189.419 61.902 190.011 61.7092 190.264C61.5023 190.536 61.114 190.375 60.9547 190.212C60.5467 189.794 62.328 185.6 63.2696 184.81C65.435 182.917 68.2402 185.604 66.9262 188.016C66.3102 189.703 65.7795 190.847 65.4181 191.368C65.0985 191.829 64.6986 191.764 64.7022 191.196ZM18.6091 153.404L12.0323 152.951C13.1976 160.018 13.2568 167.798 12.0793 173.315C11.0728 178.032 11.0613 181.507 11.3617 185.596C11.7112 190.355 13.7162 194.389 14.2209 199.44C14.5865 203.1 13.7806 206.92 13.0608 210.558C11.8578 216.639 12.1058 217.274 12.2829 224.409C12.447 231.024 11.8331 230.787 11.4554 230.401C11.3984 230.342 11.3454 229.172 11.354 227.781C11.364 226.39 11.277 222.987 11.1982 220.625C11.0406 215.906 11.5626 211.736 11.9409 210.02C12.7107 206.527 13.5758 202.949 13.043 199.083C11.9604 194.204 10.4345 189.332 9.89917 184.629C9.23918 178.83 10.8617 173.012 11.3981 168.801C11.9161 164.735 11.3671 157.7 10.3073 154.772C10.1247 153.798 9.25887 152.528 9.25887 152.528C8.26708 152.386 7.27158 152.245 5.88088 152.254C5.80288 180.179 5.88008 208.115 5.90188 236.043L12.0348 241.766L18.3363 235.742L18.6091 153.404ZM19.0518 185.437C19.0518 185.437 28.4096 190.855 38.7275 196.18C37.745 190.088 40.8611 189.169 43.7867 188.462C43.0858 176.694 53.8071 179.108 55.4499 189.333L56.5062 189.337C58.364 184.239 60.2012 180.721 64.4309 179.881C67.7088 179.23 70.9419 181.318 71.7615 186.236C71.6171 185.89 82.6307 179.735 82.9342 192.739C87.9357 189.616 91.5045 192.314 92.9471 196.279C95.0589 193.043 100.344 192.9 102.034 192.665C102.623 191.983 103.661 191.593 105.548 191.605C107.165 191.522 109.338 190.304 110.457 191.788C112.157 192.058 113.453 191.749 114.906 192.878C116.063 193.762 117.353 195.734 119.279 194.374C122.95 192.596 127.076 191.794 130.358 189.65C130.358 189.65 129.488 188.522 129.742 188.685C129.835 188.744 130.243 189.277 130.859 189.525C131.08 189.614 133.097 188.399 133.097 188.399C119.423 172.555 108.175 141.624 115.602 113.007C115.808 112.52 114.983 112.333 114.577 112.16C114.702 111.941 116.709 112.235 115.857 114.055C114.998 119.538 114.026 125.479 113.81 130.025C113.81 130.579 113.856 131.074 113.856 131.074C144.515 145.297 140.755 176.104 132.879 186.826L134.121 188.49C134.67 188.86 158.24 175.037 157.462 174.469L161.922 172.236L161.199 111.828L143.561 110.471C143.561 110.471 143.749 109.964 143.972 109.832C144.133 106.145 143.805 100.69 143.982 96.1243C144.051 83.0772 144.181 78.6405 144.013 78.2796C138.572 74.6766 130.46 69.408 123.634 66.8532C123.914 66.9337 123.522 72.2597 123.315 72.5635C116.927 74.6135 119.892 77.2336 117.531 80.0477C115.946 81.8007 112.234 82.1344 110.442 80.0313C108.3 77.9471 107.296 73.1659 107.296 73.1659C103.917 76.8 104.611 81.1903 100.086 82.8432C92.8132 86.4719 90.504 75.6233 90.927 75.8748C88.1397 78.577 80.3194 80.7748 79.4744 69.3639C75.9584 72.6199 72.0167 71.0036 70.3446 66.997C68.1983 67.0733 65.7914 68.7649 63.6188 69.6791C61.6029 70.5766 59.0239 71.1037 57.1095 71.0637C54.7152 71.3549 52.7433 71.3439 50.5855 70.6976C49.572 71.0285 47.2863 70.0385 46.5809 68.6205C45.502 67.3452 44.5613 67.2709 43.5356 67.501C40.0416 69.3521 36.2951 69.7991 32.1706 71.737C31.913 71.9169 32.5329 72.2558 32.3244 72.1893C32.2364 72.1613 30.1578 73.2156 30.1578 73.2156C51.0505 100.843 52.1873 128.736 47.808 148.506C47.6363 149.191 47.5415 149.689 47.993 150.228C47.3304 150.113 47.3197 150.308 47.1959 149.881L49.3684 133.287C49.4324 131.282 49.6816 131.431 47.9307 130.683C46.3112 129.992 44.78 129.326 43.4438 128.499C38.3494 124.702 32.5915 120.029 29.7857 114.198C21.7796 101.665 24.421 86.71 30.4178 74.8609L28.9261 73.3027C11.4147 82.1271 1.0755 91.6421 1.0755 91.6421L1.1505 150.918L19.1459 153.006L19.0518 185.437ZM10.3704 145.854C9.79347 145.213 8.32398 145.1 7.71148 145.588C7.57018 145.708 7.26828 146.337 7.17898 146.314C6.36348 146.103 5.79939 145.933 5.69089 145.241L6.55608 143.925C7.24088 142.884 8.22848 142.515 9.89187 142.124C10.4824 141.985 11.3734 141.858 11.6883 141.724C12.9383 141.18 13.3737 140.004 12.1076 140.531C11.1829 140.786 9.89087 140.702 9.71927 139.852C9.57837 139.153 8.98678 138.879 8.32688 138.961C7.10778 139.256 5.99418 139.896 4.91479 140.541C4.43609 140.831 3.52839 141.488 3.52839 141.488C3.38529 141.714 2.85709 140.067 3.34939 139.586C3.96099 139.66 4.48719 139.666 5.08349 139.427C6.57128 138.831 8.00358 138.111 9.50497 137.534C10.4613 137.156 10.549 137.188 10.297 136.505C10.1728 136.254 10.0627 135.418 10.227 134.98C10.402 134.515 10.3824 134.28 10.0855 134.081C9.40987 133.629 7.78958 134.05 5.51059 135.151C4.81669 135.487 4.35909 135.622 3.92029 135.978C4.20329 135.253 4.03849 135.119 4.03109 134.359C4.96149 134.477 5.79878 134.105 6.54138 133.712C7.15408 133.389 7.84108 133.071 9.52467 132.855C9.98457 132.796 9.77537 131.103 9.25158 130.612C8.75628 130.148 7.71518 130.138 6.45608 130.513C5.33109 130.773 3.93269 131.036 3.15909 132.251C2.18309 133.18 3.18309 130.71 4.96239 129.725C5.74268 129.708 7.46358 129.337 7.86858 129.247C8.55538 129.094 8.66548 127.473 7.66728 126.778C7.04238 126.23 9.93797 126.215 9.88217 126.383C9.84517 126.478 9.81817 127.171 10.0398 127.348C11.2869 127.725 11.2758 128.751 11.3851 129.183C12.8173 131.547 13.5222 130.064 14.508 129.249C14.3003 134.399 16.0905 134.985 16.3273 135.311C13.8682 139.925 15.7228 140.038 18.0283 141.099C18.0283 141.099 17.1519 141.457 16.5687 141.421C15.6513 141.364 13.8952 142.458 13.1274 143.103C12.7039 143.458 12.6909 143.162 10.9972 143.113C9.40157 143.066 9.28437 143.186 8.55678 143.51C7.12128 144.15 7.12868 144.754 8.53078 144.516C10.0246 144.262 11.4882 145.174 11.66 146.417C11.7784 146.652 11.673 147.067 11.649 147.054C11.3378 146.995 10.6343 147.113 10.645 146.963C10.656 146.813 10.6447 146.25 10.3694 145.855L10.3704 145.854ZM12.5504 139.614C12.9556 139.354 13.0252 138.613 12.6726 138.314C12.3517 138.041 10.9883 138.187 10.6029 138.535C9.73197 139.225 11.3237 140.378 12.5504 139.614ZM13.4234 136.514C13.9246 136.121 13.9859 135.176 13.5516 134.627C12.8153 133.696 10.8908 134.253 10.7866 135.427C10.6756 136.678 12.3753 137.337 13.4234 136.514ZM12.7972 132.261C12.8882 131.234 11.8771 130.584 10.9475 131.071C9.78967 131.678 10.4928 132.956 11.9429 132.881C12.7462 132.839 12.7462 132.839 12.7972 132.261ZM9.40807 128.095C8.86727 128.361 8.83998 129.001 9.35207 129.414C11.3834 130.542 10.7649 127.52 9.40807 128.095ZM151.27 134.233C150.378 130.927 147.92 134.204 147.916 134.25C147.829 130.862 148.467 129.354 145.942 128.197C148.476 124.335 147.947 123.803 145.261 122.321C145.508 122.342 148.827 121.594 149.395 119.687C149.521 119.776 154.604 121.036 155.238 118.245C153.704 118.948 150.688 119.053 150.653 116.052C150.939 115.965 151.654 116.113 151.594 116.209C151.193 118.134 154.678 118.61 155.248 117.089C155.248 117.089 156.418 117.879 156.933 118.001C156.99 118.039 155.348 120.331 153.85 120.677C151.15 121.576 150.219 121.819 150.216 122.359C150.215 122.568 150.657 122.602 151.459 122.767C153.135 122.883 153.1 123.246 153.32 123.805C153.515 124.299 153.704 124.398 154.263 124.348C156.178 123.708 157.136 123.371 158.471 122.028C158.633 121.996 158.822 123.44 158.925 123.489C158.941 123.259 157.57 123.661 155.465 124.901C153.747 125.912 153.074 126.059 152.856 126.332C152.693 126.535 153.111 127.173 153.155 127.866C153.192 128.449 152.802 128.732 153.089 128.914C153.42 129.124 153.932 129.085 154.605 128.91C156.091 128.549 157.184 127.962 158.519 127.131C158.235 127.672 158.711 129.043 158.711 129.043C158.711 129.043 158.052 128.576 157.51 128.818C156.465 129.28 154.775 129.909 154.319 130.017C153.877 130.121 153.686 130.179 153.513 130.326C153.3 130.508 153.336 130.944 153.332 131.585C153.332 132.034 153.201 132.449 153.482 132.585C154.106 132.787 155.365 132.723 156.647 132.273C157.194 132.032 158.353 131.397 158.353 131.397L157.99 133.293C157.504 132.741 156.108 133.148 155.173 133.518C154.701 133.668 154.56 133.966 154.441 134.38C154.232 135.087 154.679 135.575 155.194 135.807C155.536 135.962 156.065 135.898 156.065 135.898C153.643 136.826 154.125 137.168 152.712 136.464C152.101 135.799 151.503 135.096 151.27 134.233ZM153.804 134.233C153.402 133.766 152.703 133.499 152.295 133.683C151.932 133.877 152.063 134.283 152.179 134.592C152.485 135.451 154.613 135.174 153.804 134.233ZM152.391 131.87C152.959 131.121 152.334 130.114 151.285 130.108C150.556 130.103 150.168 130.56 150.176 131.134C150.191 132.221 151.917 132.496 152.391 131.87ZM151.226 129.017C152.277 128.729 152.6 127.703 151.873 126.959C151.356 126.431 149.734 126.365 149.3 126.843C148.193 128.064 149.434 129.508 151.226 129.017ZM152.1 125.264C152.718 124.946 152.837 124.416 152.291 123.814C151.301 122.966 149.572 123.628 150.131 124.864C150.404 125.47 151.348 125.651 152.1 125.264ZM25.5324 96.7762C26.4611 96.4361 27.1316 95.7108 28.1091 95.1544C28.7684 94.7922 28.5698 94.8498 27.7261 94.3534C27.0625 94.0465 25.7327 92.6914 25.6084 93.0146C25.3071 93.5923 25.3501 96.7499 25.5324 96.7762ZM49.013 129.85C49.051 129.206 49.1282 128.235 49.11 127.523C49.2359 126.167 48.9934 126.563 48.2637 127.006C47.7238 127.357 46.8579 127.889 46.5183 128.06C45.1793 128.732 45.3395 128.767 47.2243 129.679C48.8065 130.393 48.9849 130.323 49.013 129.85ZM47.1757 126.675C48.4553 125.863 48.8799 125.445 48.9419 124.534C48.9519 123.487 48.8272 123.106 47.9145 123.831C44.8004 126.305 41.5948 121.45 44.4455 118.753C45.0269 118.203 45.7652 117.342 45.7717 117.124C45.8187 115.559 44.0684 117.078 42.6384 119.227C41.0553 121.18 40.0689 123.624 41.4581 125.971C42.5692 127.688 45.0426 128.027 47.1757 126.675ZM40.0999 123.515C40.0439 122.749 40.2579 121.894 40.3571 121.639C40.7064 120.743 40.6918 120.632 39.105 121.378C38.4723 121.588 37.7168 121.758 37.4261 121.756C36.1301 121.748 36.4536 122.158 38.311 123.717C40.1778 125.283 40.24 125.424 40.0999 123.515ZM44.5138 116.015C44.7117 115.544 44.3003 115.362 43.9068 115.451C43.8758 115.458 43.196 115.968 42.3976 116.601C39.9773 118.518 38.2022 118.742 37.0016 117.281C35.7841 115.8 36.293 114.044 39.0141 112.033C40.2147 111.145 40.5028 111.085 39.9255 110.698C39.4863 110.403 39.4598 110.448 37.7341 111.623C34.2563 113.992 33.2149 115.61 33.5636 117.967C33.6346 118.935 34.1391 119.442 34.6269 119.819C37.9429 122.775 42.5429 118.699 44.5138 116.015ZM48.0239 117.414L47.8145 114.152C44.2784 111.085 40.9254 105.846 39.7661 101.508C38.5847 97.6496 39.5263 89.6008 39.7041 90.1986L37.7937 86.558C36.1309 90.4215 35.4047 96.3133 37.2136 102.316C38.7491 107.412 41.8229 113.584 48.0239 117.414ZM33.1313 115.514C34.2549 113.343 34.2896 113.578 32.1193 113.559C29.6423 113.538 29.9191 113.234 31.3151 115.362C32.4362 117.072 32.2476 117.221 33.1313 115.514ZM34.6193 112.539C36.0462 112.079 35.7204 112.184 37.6141 110.945C39.7875 109.523 39.8785 108.745 37.6961 109.841C34.8945 111.248 32.4341 110.889 31.521 109.052C30.7073 107.416 32.406 105.375 35.2031 104.576C36.1588 104.303 36.6624 104.073 36.665 103.652C36.675 102.368 31.9116 104.081 29.9497 106.019C26.1626 109.76 29.477 114.2 34.6193 112.539ZM28.4965 106.714C28.6243 106.519 28.9644 106.051 29.2786 105.566C30.6197 103.998 29.4922 104.467 28.3015 104.038C27.6726 103.804 27.0277 103.572 26.6586 103.629C25.9462 103.737 26.8984 105.121 27.1276 106.015C27.7685 108.004 27.6949 107.943 28.4965 106.714ZM33.5662 103.128C35.967 102.892 36.2118 102.659 36.2149 102.158C36.2149 101.662 35.9213 101.757 34.7162 101.925C31.5249 102.371 29.4116 101.554 28.9554 99.8429C28.4844 98.0757 30.6459 96.4031 33.5264 96.5019C35.0866 96.5554 36.1256 96.0129 35.1754 95.4913C34.6808 95.2196 30.3838 95.2782 29.4121 95.563C26.5567 96.3995 25.3933 97.9971 25.6537 100.209C26.0487 102.94 27.5312 103.723 31.145 103.529C31.8375 103.492 32.72 103.212 33.5662 103.128ZM35.4237 94.2321C35.4237 93.806 34.7409 93.744 32.4756 93.4057C29.4583 92.9551 28.1102 90.1461 29.929 88.4561C30.6184 87.8154 32.2613 87.5405 33.1765 87.7083C35.1658 88.0729 36.382 88.4844 36.4009 87.8054C36.4009 87.1997 35.8276 87.1563 32.0934 86.3629C26.4517 85.1626 23.3545 90.7338 27.8654 93.4585C29.579 94.4936 35.4184 95.0822 35.4237 94.2321ZM36.8225 86.2607C36.8225 86.0473 36.6406 85.8832 36.2133 85.7151C35.5923 85.4707 35.1751 85.4256 33.7752 84.4764C31.913 83.2137 31.3479 80.7514 32.59 79.3793C33.7965 78.0983 31.626 76.5861 29.8965 78.0316C28.0996 79.5334 28.2506 81.8912 30.3201 83.7577C32.2255 85.4763 36.8163 87.2631 36.8225 86.2607ZM27.6813 85.9277C29.6422 85.0022 31.0507 85.5348 29.5501 84.2576C28.7077 83.4723 27.9888 81.2399 27.4033 83.1334C26.9552 84.262 26.6259 86.2525 26.6138 86.4484C26.7453 86.5829 26.7155 86.3521 27.6813 85.9277ZM97.041 81.1235C94.8075 80.5639 93.2818 77.9549 93.8503 75.4473C94.1715 74.0304 95.497 70.6914 95.7575 70.4836C96.7434 69.6974 96.6079 70.7435 95.7035 72.5607C94.8788 74.4156 94.2359 75.9072 94.4912 77.0109C94.8545 78.582 95.4862 79.781 97.11 80.1797C98.2515 80.4599 99.327 79.9814 100.056 79.4636C101.02 78.779 101.931 77.0228 103.02 74.5911C103.368 73.9074 103.835 71.8068 104.415 73.0885C104.695 73.7519 102.371 78.1642 101.502 79.2823C100.409 80.6891 98.5629 81.5143 97.041 81.1235ZM110.506 79.6472C111.594 80.6957 113.432 81.2232 114.633 80.8473C117.579 79.8032 118.917 77.0035 117.802 72.5028C117.237 69.9798 116.754 68.4107 116.266 68.0988C116.029 67.9471 115.769 68.2298 115.538 68.5809C115.332 68.8943 115.647 69.3348 115.981 70.5222C117.389 75.5236 117.021 77.7851 115.303 78.7409C112.81 80.1277 110.675 78.5306 109.951 74.9623C109.835 74.4109 109.494 73.2865 109.494 73.2865C109.303 72.7904 107.759 72.9002 108.321 74.5614C108.49 75.8463 109.667 78.912 110.506 79.6472ZM123.142 66.548C123.103 64.7884 119.424 57.1533 119.174 57.9636C119.174 57.9636 119.158 59.7481 119.302 60.4503C119.357 60.7152 119.547 60.9609 119.705 61.2432C122.902 66.9779 122.408 71.0194 119.636 71.9047C118.691 72.3358 118.486 72.7603 118.908 73.205C119.763 74.1395 121.905 72.2915 122.323 71.6206C123.372 70.1156 123.226 67.3702 123.142 66.548ZM69.602 65.25C70.807 63.8965 73.4494 59.2254 74.2645 56.7744C76.7708 49.4802 79.4057 41.0904 80.1336 33.3354C80.2146 32.3569 80.2651 30.8677 80.3134 30.7403C80.1163 30.5262 78.8735 30.6386 78.4562 30.8529C78.2563 31.1148 78.3902 31.6955 78.3187 32.4522C77.1972 41.1706 75.1266 49.1133 72.0559 57.1985C70.7127 60.7108 69.4657 63.0231 67.8478 65.4659C67.5654 65.8923 67.206 66.3315 67.0645 66.5794C66.6555 67.1734 66.9564 67.5615 67.4302 67.3103C68.2717 66.8313 68.9974 65.9114 69.602 65.25ZM65.4933 67.3713C69.3374 62.0492 72.0698 55.6603 74.1935 48.1195C75.5357 43.2387 76.7168 38.3 77.4251 33.2672C77.5705 32.193 77.6878 31.4738 77.4791 31.1525C76.9602 31.0119 75.9914 31.0991 75.6556 31.36C75.4499 31.673 75.5866 32.2993 75.397 33.7478C74.9052 37.4933 74.1688 41.2539 72.9261 46.177C69.6454 57.0737 66.6305 63.1743 62.6704 68.5119C62.3504 68.9609 62.0654 69.2528 62.094 69.4432C62.136 69.7226 62.5202 69.6998 63.1497 69.3041C63.9721 68.6537 64.9128 68.0859 65.4933 67.3713ZM59.6376 70.1995C61.5177 69.1254 64.8288 64.4525 67.1684 59.4196C69.7929 53.4782 71.9896 46.767 73.4277 40.9547C74.0517 38.4077 74.9392 32.0468 74.8123 31.6281C74.6617 31.1307 72.8241 31.5449 73.079 31.8883C73.079 31.8883 71.2532 42.1131 69.2885 47.7492C65.6413 58.2123 62.4872 65.3113 59.0927 68.7242C58.6477 69.1716 57.7715 70.0468 57.7715 70.0468C57.7715 70.0468 57.7895 70.4372 58.0731 70.4967C58.7502 70.6226 59.2011 70.4253 59.6376 70.1995ZM56.7595 69.7826C61.0025 67.3926 65.9722 56.2303 70.0289 42.2149C70.723 39.817 71.9914 31.789 71.9914 31.789C71.9914 31.789 70.3008 31.8523 69.9745 32.2102C69.6465 32.6953 69.6991 33.9304 69.2255 36.8638C67.4013 45.7291 64.6497 53.8155 60.5142 61.8077C58.7254 65.3491 55.7534 68.6842 53.8773 69.634C52.8283 70.1651 52.5215 70.7503 53.2895 70.7925C54.5831 70.8391 54.6982 71.1119 55.6379 70.6034L56.7595 69.7826ZM114.903 194.616C111.721 194.605 109.018 197.681 106.61 201.547C101.488 209.467 98.0451 222.705 97.207 229.739L99.1394 229.372C98.8495 229.506 102.752 210.648 108.697 202.573C111.911 197.478 111.776 197.401 113.58 196.933C115.861 196.343 117.691 198.83 116.559 200.328C116.15 200.835 115.7 200.463 115.827 199.74C116.232 197.434 112.892 196.99 111.96 199.256C110.887 201.863 113.74 204.187 116.527 203.163C119.019 202.276 120.062 198.766 118.313 196.174C117.414 195.297 116.114 194.519 114.903 194.616ZM98.1521 194.293C94.3418 199.115 92.4544 204.07 90.1148 210.834C87.7773 217.594 86.098 224.205 85.3702 231.791L87.4258 231.524C87.3508 226.647 92.6541 203.426 100.107 194.727C100.523 194.177 100.857 193.719 100.826 193.591C100.412 192.417 98.6452 193.831 98.1521 194.293ZM106.57 192.493C101.632 196.57 97.687 205.478 95.0856 213.713C92.2736 222.614 91.012 230.77 91.2232 230.77L93.1853 230.479C93.0392 229.963 98.6976 198.599 109.198 192.889C110.108 192.431 110.299 191.97 109.532 191.77C108.35 191.603 107.399 191.994 106.57 192.493ZM112.099 192.513C101.316 193.944 94.2697 227.284 94.0343 230.052C94.0343 230.095 93.9953 230.31 93.9953 230.31L96.1421 229.864C96.1421 229.864 96.1601 229.757 96.1701 229.704C97.6487 221.186 99.0893 215.214 102.45 207.514C105.07 201.808 108.683 194.513 114.083 193.805C114.522 193.748 114.938 193.925 114.784 193.41C114.455 192.593 112.841 192.488 112.099 192.513ZM47.8356 182.014C43.9384 183.024 43.8116 187.733 46.4072 193.75C46.6033 194.205 46.568 194.453 46.7667 194.629C47.2104 195.02 47.5585 194.474 47.6079 194.114C47.6829 193.567 47.4511 192.831 47.0389 191.762C45.433 187.597 45.818 185.197 47.4087 184.136C51.4851 182.018 52.582 186.366 53.1983 188.367C53.3493 188.854 53.4011 189.524 53.6671 189.561C54.4804 189.673 54.868 189.382 54.8559 189.382C54.8559 189.382 53.7762 185.638 53.1178 184.231C52.0525 181.955 49.519 181.478 47.8356 182.014ZM19.5612 186.46L19.5212 236.094L12.0611 243.16C8.85917 240.392 4.65339 236.058 4.65339 236.058L4.78579 152.151L2.38549 151.957C1.7981 188.007 2.37449 224.786 2.34649 260.907L24.2477 260.907L42.5044 232.119C42.5044 232.119 42.7354 231.777 42.8083 231.596C43.0323 231.04 43.0064 230.213 42.8963 227.154C42.8513 225.911 42.9903 224.957 42.8083 224.665C42.6244 224.37 42.2347 224.581 41.8713 224.746C41.5011 224.914 41.2807 224.854 41.48 224.414C41.593 224.164 41.9586 223.616 42.2742 223.094C43.2993 221.396 43.5499 220.853 43.2036 218.971C43.1186 218.509 42.6976 218.117 42.3314 217.572C39.2588 212.996 38.0074 206.214 39.533 201.247C40.0192 199.051 39.8442 198.606 38.7939 196.895L19.5612 186.46ZM116.125 133.092C114.12 132.053 114.159 132.076 114.146 134.042C114.157 135.513 114.185 135.869 114.732 135.671C115.523 135.265 116.49 134.893 117.219 134.58C118.613 134.098 116.843 133.479 116.125 133.092ZM124.066 138.204C122.509 136.95 123.084 137.094 122.643 139.921C122.377 141.629 122.034 141.673 123.784 141.108C124.778 140.761 126.821 140.98 125.905 139.803C125.915 139.824 124.371 138.465 124.066 138.204ZM61.523 181.599C59.1353 183.057 56.6963 190.122 56.6963 190.122C48.3522 191.125 44.8591 199.407 44.486 206.313C44.1915 211.765 43.8252 218.131 44.3703 218.688C49.8415 216.205 51.9491 219.071 52.4675 218.298C52.7044 217.961 51.2544 216.843 49.4329 215.84C49.0099 215.607 48.3545 215.188 48.1063 214.98C47.4419 214.424 49.4325 214.902 50.6903 215.766C52.2948 216.869 52.5646 216.639 51.8682 213.418C51.111 209.916 50.9872 209.487 53.6537 208.099C54.7207 207.543 55.3272 207.072 56.0911 206.208C56.7023 205.516 56.8587 205.348 56.6336 206.364C56.2435 208.125 54.6924 208.892 53.2955 209.607C52.6005 209.966 52.3132 210.69 52.3094 211.311C52.3094 211.945 53.0265 215.367 53.3603 216.46C53.6696 217.499 53.7832 218.541 54.0222 219.6C54.6489 222.348 54.6891 222.887 54.3724 224.882C54.1867 226.052 54.0925 226.719 54.157 227.426C54.216 228.068 54.3037 228.942 54.3037 228.942C54.3037 228.912 52.8141 227.398 49.5468 228.696C47.1914 229.632 45.3303 228.656 44.0103 227.963C43.7066 229.046 43.7753 230.222 43.812 231.464C57.3962 233.971 68.9978 233.635 78.7659 232.603C79.0189 229.687 80.2506 220.416 82.8371 212.056C83.9134 208.577 85.1307 204.91 86.5032 202.463C87.4391 200.794 88.3941 199.67 88.7318 199.476C88.8369 199.411 88.8466 199.377 88.8438 199.332V199.071C88.8098 198.529 88.6798 197.69 88.218 197.318C87.0909 196.41 85.2922 197.579 84.7009 199.604C84.1828 200.817 81.8184 206.064 81.6496 205.975C81.5104 205.887 81.1824 205.88 81.3011 205.475C82.2063 203.348 83.4498 201.1 84.15 199.191C85.1173 196.442 87.2208 194.991 88.7929 196.724C89.3317 197.318 89.5482 197.866 89.7952 198.055C89.9816 198.198 90.2326 198.1 90.3869 197.865C90.9796 196.963 89.6057 194.917 88.1316 194.505C86.0038 193.912 84.4182 195.479 82.0051 200.561C80.6118 203.495 80.3626 204.231 80.142 204.006C80.093 204.026 79.7232 204.025 79.857 203.457C80.1443 202.235 81.9932 198.685 83.3324 196.433C85.3146 193.1 88.995 192.83 90.5427 195.723C90.7793 196.117 90.7911 196.633 91.0539 196.985C91.529 197.605 92.3104 197.481 92.504 196.463C92.2932 195.789 90.9994 193.354 90.1007 192.93C88.0309 191.493 85.5187 191.775 83.4048 193.681C82.9253 194.114 82.4252 194.992 81.023 197.866C78.9575 202.475 78.9026 202.493 78.3383 201.75C79.1686 199.508 81.3537 195.866 82.2357 193.629C82.4036 193.296 82.4375 192.938 82.4246 192.594C82.3736 190.969 82.6361 188.097 79.2325 186.056C76.33 184.476 72.498 186.138 71.1931 189.247C70.1937 191.628 69.4636 193.264 68.9599 193.601C68.2521 194.075 68.3843 193.415 68.4544 193.175C69.4602 191.02 70.8751 188.843 71.099 186.674C71.2455 180.807 65.3557 178.637 61.5257 181.599H61.523ZM31.1155 71.6407C35.7116 69.4827 38.8587 68.3965 43.5421 67.0018C44.1748 66.7217 44.2756 66.6574 43.6041 65.3145C40.6368 59.381 48.7788 54.6513 51.5459 60.4754C51.9148 61.252 52.0004 61.6814 52.364 61.31C53.0441 60.4086 53.8531 59.1292 54.6936 57.6687C57.8076 52.7938 59.2173 47.2327 60.8782 42.3247C61.5669 39.4413 62.5286 36.4271 62.8008 33.3347C56.6217 22.4693 45.7586 2.5558 45.7586 2.5558H2.34609V89.6533C14.4401 79.4598 22.6691 75.7723 31.1155 71.6407ZM79.8052 68.4315C80.33 67.8718 80.7839 66.943 82.6651 63.0441C83.0007 62.3484 83.5367 61.2697 83.755 60.7678C84.0373 59.8502 85.0942 59.2764 84.5794 60.9194C84.4624 61.274 84.2609 61.7523 83.9416 62.3883C83.3159 63.5245 82.7216 64.9163 82.2763 65.8253C79.8711 70.6948 79.9852 73.5322 82.6727 75.645C84.6801 77.5838 88.8959 77.8026 91.1396 74.6723C91.4755 74.1681 91.7751 73.5194 91.8721 73.2815C92.8471 70.891 93.5665 69.6957 93.7511 69.4591C94.7492 68.1794 94.9092 69.765 93.418 72.2059C91.7094 75.003 91.6797 78.0345 93.1567 80.1673C95.3458 83.3285 99.5042 83.4183 102.114 80.8822C103.471 79.2759 104.549 77.2323 105.417 74.62C105.61 74.041 105.809 73.611 105.95 73.2716C106.167 72.7483 106.48 72.5535 107.29 72.3968C112.846 71.322 117.508 65.5617 118.17 59.2724C118.257 58.4216 118.497 56.9165 118.584 56.0232C118.759 54.2408 118.762 45.0089 118.584 44.4581C118.49 44.1611 118.325 44.0038 117.963 44.008C117.685 44.011 117.293 44.1097 116.728 44.3131C114.897 44.9735 114.044 45.1409 112.284 44.5053C111.703 44.2953 111.301 44.2237 111.062 44.2445C110.286 44.3122 111.318 45.4371 113.581 46.6797C114.551 47.2122 115.317 47.9297 114.531 47.8767C114.303 47.8613 111.571 46.4357 111.194 46.2021C109.95 45.4315 110.274 46.4018 110.915 48.9547C111.776 52.3832 111.28 53.3458 108.6 54.6889C108.1 54.9393 107.437 55.4619 107.1 55.7986C105.68 57.9187 106.046 56.3567 106.762 55.2275C107.984 53.9348 107.235 53.494 104.729 54.3898C101.871 55.4117 100.579 54.6657 99.7791 53.0606C98.875 51.2456 100.576 48.9111 101.994 48.9567C102.454 48.9715 102.371 49.1386 101.694 49.6052C100.877 50.1689 100.489 50.7127 100.404 51.6756C100.231 53.6384 101.621 54.4719 103.564 53.1554C104.481 52.5337 105.203 52.1044 105.898 51.945C106.587 51.7871 107.621 52.0455 107.617 52.6016C107.617 52.8308 107.584 53.3934 107.633 53.5181C107.815 54.1394 108.8 53.2598 109.228 52.9475C110.691 51.8426 110.643 51.6248 110.244 49.8329C109.59 47.3251 109.261 45.0318 108.638 42.4895C108.305 41.1576 108.249 39.6526 108.451 38.2953C108.553 37.6149 108.815 36.2164 108.868 35.259C108.921 34.3016 108.858 32.9336 108.897 32.9338C110.35 34.0568 110.94 34.2531 112.358 33.7094C114.552 32.8013 115.938 32.8957 117.786 33.7888C118.47 34.1192 119.093 34.3522 119.093 34.3522L119.177 31.4732C119.177 31.4732 117.466 31.1172 114.304 30.6975C104.785 29.4343 85.2518 29.1676 84.5245 30.3286C84.3397 30.6237 84.1552 32.6802 83.6364 35.5398C82.4845 41.4815 81.1936 47.4029 79.4661 53.2009C79.1118 54.3821 78.7735 54.8579 78.9542 54.8932C79.0282 54.9077 79.3817 54.4502 79.5461 54.2586C80.4722 53.1793 79.7627 55.7427 78.3647 58.8303C78.2385 59.109 78.1347 59.4143 78.1341 59.5087C78.1341 59.6951 77.255 61.8471 76.6492 63.1481C76.2728 63.9566 75.9609 64.2003 75.9641 63.6833C76.3887 61.9042 77.5119 59.6033 77.6737 58.0182C76.6898 59.4534 75.257 61.8234 74.1728 63.2372C73.9729 63.618 74.1848 63.7358 74.3594 64.2065C75.0111 65.9642 76.5891 66.1215 77.5013 64.5299C78.0099 63.6424 79.5895 60.2992 80.1392 58.8357C80.7046 57.3305 81.1017 56.5368 81.29 56.4385C81.6681 56.2411 81.7408 57.0969 81.0704 58.5207C79.0362 62.8412 78.1647 65.2628 77.1687 66.156C76.3958 66.849 75.0584 66.8049 74.3155 65.5713C73.0559 63.4798 71.9808 64.1723 73.1366 66.317C74.3305 68.5326 77.0587 68.7398 78.4835 66.7442C78.9538 66.0853 81.1675 61.8176 81.8632 60.0824C82.2516 59.1135 82.6665 58.3591 82.8051 58.3052C83.5485 58.0163 82.7002 60.2284 80.5659 64.6572C79.8743 66.3673 78.7636 68.1619 77.26 68.7173C73.6069 69.5255 73.1127 67.574 71.8418 65.3501C71.2241 64.797 70.6647 65.6816 70.9011 66.6595C71.2846 68.2458 72.0016 68.8665 73.1087 69.6626C75.421 71.1493 78.6359 70.1262 79.8009 68.4315L79.8052 68.4315ZM96.1035 77.6981C95.7722 76.9574 95.8198 76.2053 95.989 75.5039C96.3721 73.9228 97.006 72.3886 97.7471 71.0536C98.9469 70.4805 98.0304 72.7609 97.8803 73.0996C96.4332 76.1466 96.2965 77.3257 97.6468 77.6773C98.8038 77.9786 99.4259 77.2637 100.52 74.5318C101.081 73.1297 101.305 72.5088 101.504 72.4281C101.925 72.2571 102.128 72.4288 102.103 72.8565C101.38 74.6504 100.814 76.5365 99.626 78.0259C98.4633 79.0092 96.7118 79.0145 96.1035 77.6981ZM85.2513 75.3569C84.7476 75.2577 83.8845 74.6011 83.2847 74.0464C81.2403 72.156 81.5778 69.5422 84.1127 64.6284C84.3096 64.2468 85.047 62.761 85.2839 62.273C85.7082 61.3991 86.1259 61.7413 86.1223 62.3196C86.1223 62.4822 85.4878 63.839 84.8483 65.0983C82.0489 70.6251 82.1449 72.8793 84.8653 74.1942C87.5203 75.4775 88.7096 74.739 90.8268 70.5204C92.0516 67.3532 92.6555 67.3008 92.5883 68.5045C92.5883 68.9537 91.1033 71.9902 90.1469 73.4015C88.7602 75.4481 87.5596 75.8116 85.2513 75.3569ZM85.4523 72.6901C84.4101 72.0387 83.9848 70.4182 84.6009 69.092C85.1612 67.9982 86.5968 63.8057 87.2715 63.5695C88.3563 63.532 87.7774 64.4495 86.4333 67.0276C84.8435 70.4431 84.9006 71.3562 86.1277 71.8791C87.2635 72.363 87.8021 71.3712 89.4771 67.3765C89.7401 66.7492 90.1072 66.0978 90.3226 66.2342C90.5888 66.2139 91.0513 66.4164 90.1707 68.2265C89.9618 68.6593 89.6071 69.5672 89.2153 70.4128C88.0703 72.8843 86.7712 73.5143 85.4523 72.6901ZM104.268 65.4401C103.809 65.2023 101.659 64.3493 101.978 63.6425C102.017 63.5761 102.142 63.6282 102.206 63.6712C104.174 65.0026 106.622 65.3407 109.176 63.4926C109.605 63.1104 109.926 63.3689 109.686 63.8488C108.913 65.3973 105.472 66.0592 104.268 65.4401ZM97.9446 63.1948C98.0036 63.0462 98.1812 62.6037 98.3382 62.0087C98.5743 61.1145 98.5191 60.456 98.7282 60.5701C99.6202 61.0566 101.215 61.0683 101.996 60.5873C102.851 60.06 104.588 59.8988 105.22 60.3143C106.124 60.9079 106.584 60.6318 107.218 60.1334C107.933 59.5708 107.946 59.8112 109.237 60.2636C110.191 60.5976 110.566 60.8263 110.971 60.7521C111.127 60.7237 111.442 60.3664 111.542 60.3846C111.853 60.4409 111.888 61.3295 112.173 62.3439C112.426 63.2413 112.282 63.4577 111.485 62.92C110.893 62.5203 109.19 62.3317 107.419 62.8798C106.106 63.2859 105.805 63.1224 104.842 62.9582C102.442 62.5487 100.71 62.2325 98.9221 63.2777C97.9669 63.8359 97.6201 64.1259 97.9446 63.1948ZM91.9757 58.7625C90.8127 56.4082 93.4874 53.2907 95.8383 54.3915C96.6178 54.7565 97.3111 56.1391 96.1577 55.5047C90.811 54.4154 92.1467 62.3185 97.8882 58.1439C101.704 55.5872 104.404 55.1917 104.629 57.6655C104.522 58.5742 103.722 58.4291 103.116 58.5122C101.535 58.7348 100.95 58.9943 99.1173 59.7868C96.3289 60.6738 93.6038 61.3983 91.9757 58.7625ZM112.897 59.8505C111.592 59.5123 110.459 58.9925 109.099 58.7436C107.751 58.5067 107.143 57.7968 107.387 56.8415C107.64 55.849 108.989 55.7443 111.016 56.9935C113.264 58.3786 114.894 58.7141 115.716 58.192C117.38 57.1356 116.483 55.4164 114.895 54.9764C113.704 54.6416 114.58 54.1742 115.861 54.5597C117.928 55.3504 117.972 59.1202 115.846 59.9028C115.136 60.1646 113.882 60.0937 112.897 59.8505ZM94.6856 47.372C96.2037 46.4252 97.6699 45.579 98.192 45.0137C98.4659 44.7171 99.2277 43.7214 98.6363 44.0253C95.5407 45.9023 91.9467 44.3433 89.3428 43.0591C88.0924 42.4687 88.3998 42.7301 87.4397 42.7947C86.7884 42.8385 86.2655 42.9764 86.149 42.5067C86.097 42.2994 85.7332 42.3862 85.5001 42.3629C84.538 42.2669 85.146 40.9816 87.1672 39.5647C89.5507 37.8938 91.6302 36.8031 93.6945 36.3532C95.8387 35.8859 98.0249 36.1502 99.6288 37.7084C100.245 38.307 100.191 38.7063 100.754 38.3386C102.039 37.4995 102.05 38.6131 100.966 39.6435C100.222 40.3512 100.494 40.5434 101.404 41.2169C101.839 41.5384 101.482 41.8444 101.24 42.3125C101.148 42.5986 101.22 42.9127 101.177 43.1295C100.974 44.1356 96.4348 47.6916 94.7915 48.2988C93.6612 48.5115 94.2533 47.6519 94.6856 47.372ZM97.8374 40.8383L97.0837 40.8485C96.226 43.4916 94.6424 44.3924 93.3245 41.2234L92.7242 41.2845C92.6972 43.9686 97.273 45.6541 97.8374 40.8383ZM92.8817 43.317C92.5707 42.7907 92.2211 41.5828 91.8959 41.5653C91.0111 41.5276 89.788 41.6883 90.078 42.2414C90.5349 43.1174 93.2423 43.9272 92.8817 43.317ZM98.9463 42.8457C99.7621 42.35 99.9358 42.0082 99.4036 41.4636C98.7163 40.7602 98.3577 41.1193 98.1419 42.2425C97.9565 43.2078 98.0909 43.3656 98.9463 42.8457ZM87.8867 40.987C93.3508 38.4921 95.423 38.1697 97.6432 38.7871C98.1573 38.9301 98.6129 39.2202 98.9003 39.2029C99.9632 39.1388 99.2852 37.9371 97.377 37.2488C95.1977 36.4626 93.8156 36.82 89.6267 39.0236C87.1741 40.3139 85.1815 42.2223 87.8867 40.987ZM103.723 37.9589C103.645 37.8095 103.315 36.817 103.221 36.4546C103.127 36.0922 103.042 35.7183 102.94 35.7165C100.405 36.1252 98.1755 35.6471 97.5764 35.5028C93.742 34.5797 90.0372 34.767 87.2717 35.86C86.5962 36.127 85.7587 36.5592 85.6782 36.6351C85.4594 36.8413 85.1365 36.6068 85.1381 36.3493C85.1381 36.047 86.8374 34.6914 87.9074 34.1566C91.1616 32.5299 94.5957 32.2516 98.3667 33.2757C100.823 34.2259 102.407 34.0722 103.977 33.3784C104.748 33.0378 104.201 33.8803 103.957 34.9978C103.788 35.7721 103.974 36.4347 104.005 36.8722C104.102 37.9293 103.983 38.459 103.723 37.9589ZM160.824 260.907V173.58C139.042 188.721 129.514 191.732 119.278 195.442C122.702 202.482 115.159 208.506 110.833 201.358C106.381 206.402 100.247 224.067 100.03 229.933C100.03 229.933 111.873 250.607 117.651 260.907H160.824ZM81.6617 232.28C82.0569 227.886 82.9877 220.437 85.8877 211.768C87.1042 208.131 88.5715 203.958 90.6445 200.223C91.4718 198.917 91.5292 198.412 90.6445 198.882C90.0895 199.177 87.5556 202.06 87.2107 202.788C83.3236 211.063 81.5249 221.005 80.1026 228.596C79.7801 230.302 79.6849 232.424 79.6849 232.424L81.6617 232.28ZM84.5052 231.92C85.4301 221.245 89.3225 206.833 95.1706 197.44C95.7202 196.545 96.3977 195.769 96.3718 195.459C96.2958 194.545 94.0441 196.124 92.2968 198.818C90.347 202.721 88.3926 206.883 86.8976 211.492C84.7871 217.998 83.2466 224.008 82.6462 232.164L84.5052 231.92ZM90.1251 231.028C90.7113 224.877 92.6037 219.234 94.1899 213.581C96.1297 206.668 98.7189 201.58 101.736 196.999C102.704 195.53 103.846 194.155 104.932 192.754C105.07 192.585 105.209 192.282 105.178 192.156C104.481 192.033 103.926 192.251 103.387 192.555C102.634 192.981 101.576 194.053 100.958 194.849C96.6598 200.379 94.3473 206.836 92.2014 213.359C90.1407 219.623 88.6563 225.648 88.3657 231.32L90.1251 231.028ZM51.5251 226.313C52.3894 226.245 52.9463 226.41 53.1972 226.178C53.4461 225.948 53.365 225.328 53.4433 224.536C53.6109 222.844 53.4333 222.936 52.3888 224.03C50.6531 225.841 47.486 226.539 45.6022 225.444C44.6516 224.892 43.9908 224.509 43.9012 224.969C43.7967 225.504 43.9412 225.914 44.3476 226.2C46.6298 227.25 48.7961 226.529 51.5251 226.313ZM49.485 225.017C50.687 224.614 51.9089 223.967 52.5961 222.978C53.2519 222.035 53.241 221.9 52.7446 222.079C50.3014 223.291 48.6963 223.907 46.5128 223.572C43.5561 223.119 43.4335 223.499 45.3878 224.734C46.6666 225.542 47.7275 225.566 49.485 225.017ZM45.1443 221.234C45.6025 220.894 45.7195 219.506 45.3505 219.427C44.9771 219.347 44.4328 220.036 44.2994 220.597C44.15 221.341 44.6969 221.531 45.1443 221.234ZM49.7218 221.174L50.5078 221.103C50.1059 217.623 46.3611 217.472 45.67 221.451L46.2633 221.54C47.0364 218.369 49.3008 218.456 49.7218 221.174ZM52.1909 220.614C53.3367 219.969 52.9405 219.171 51.3951 218.866C50.3807 218.625 50.4369 219.462 50.9626 220.597C51.2239 221.161 51.4066 221.055 52.1909 220.614ZM43.3715 216.349C43.3615 215.961 43.204 215.336 43.0216 214.959C41.7015 212.231 40.9725 209.008 41.1224 205.003C41.2298 202.131 41.2653 201.244 40.6737 201.24C39.8473 201.641 39.359 206.983 40.411 211.431C41.1533 214.57 43.4264 218.465 43.3715 216.349ZM43.3395 212.001C43.2585 210.501 43.5862 207.139 43.4235 206.406C43.2091 205.441 42.6432 204.571 42.3236 204.339C41.8277 203.979 41.7038 204.669 41.8753 206.471C42.2779 210.699 42.9508 213.901 43.3395 212.001ZM43.7571 204.304C44.0835 203.711 43.9561 203.082 43.2373 201.668C40.4065 196.098 40.0391 192.292 42.9962 190.909C43.3273 190.754 43.536 190.724 43.7565 190.601C44.6891 190.08 44.3339 189.134 42.9394 189.524C39.0871 190.603 38.3275 194.24 41.5749 200.97C43.2289 204.328 43.4855 204.798 43.7571 204.304ZM44.4584 201.146C44.5094 200.912 44.6088 200.002 44.6471 199.816C44.6861 199.629 44.2975 199.093 43.8804 198.019C42.7915 195.214 42.7688 194.051 43.9534 193.238C44.3376 193.011 44.7337 193 44.7934 192.738C44.8864 192.331 44.8794 191.662 44.6371 191.468C42.9382 191.48 42.1531 192.479 41.8555 193.43C41.4066 194.934 41.8745 197.136 43.2086 199.865C43.855 200.716 44.1932 202.272 44.4584 201.146ZM45.7573 197.517C46.6659 195.667 45.8043 193.271 44.5535 194.088C43.7423 194.618 43.7011 195.179 44.1988 196.719C44.805 198.595 45.1638 198.725 45.7573 197.517ZM48.9438 192.569C49.3076 192.206 48.9848 191.684 48.3125 189.641C47.7367 187.891 48.0001 186.695 49.0969 186.349C50.6702 185.958 51.2266 188.552 51.5575 189.646C51.7283 190.49 52.2788 190.723 52.7672 190.136C52.904 189.972 52.9432 189.835 52.7102 188.914C51.6948 184.893 50.3668 183.613 48.2287 184.615C46.2464 185.544 46.5065 187.621 47.9435 191.989C48.1357 192.573 48.264 193.007 48.4027 193.067C48.5162 193.117 48.742 192.77 48.9438 192.569ZM50.6996 191.203C51.1692 190.734 51.1416 190.946 50.6036 189.268C49.9906 187.355 49.6683 186.956 49.0094 187.614C48.6048 188.017 48.8091 188.462 49.271 190.027C49.8075 191.846 49.9512 191.95 50.6996 191.203ZM132.875 184.653C136.003 182.478 134.713 178.574 130.595 177.126C130.109 176.955 129.574 176.749 129.406 176.667C127.515 175.75 126.043 175.466 126.038 176.184C126.038 176.605 126.604 176.818 128.417 177.708C131.1 179.026 131.706 180.548 130.382 182.468C129.428 183.851 131.216 185.435 132.875 184.653ZM135.713 179.902C135.985 178.785 136.388 177.828 136.582 177.178C136.847 176.159 136.505 176.396 135.836 176.555C134.112 177.457 132.878 176.967 133.716 178.207C134.646 179.856 135.414 181.129 135.713 179.902ZM135.499 176C137.648 174.703 138.124 171.323 136.125 169.713C135.646 169.328 134.819 168.82 133.817 168.512C131.782 167.886 128.845 167.602 127.768 167.931C127.537 168.206 127.527 168.638 127.758 168.764C128.058 168.876 128.6 168.95 129.382 169.03C132.372 169.336 133.848 170.234 133.704 172.373C133.557 174.577 131.808 175.424 128.651 174.727C126.954 174.353 126.163 174.533 126.845 174.934C127.654 175.409 129.396 176.034 131.112 176.374C132.58 176.634 134.253 176.734 135.498 176H135.499ZM125.185 175.443C127.604 169.973 128.878 155.623 115.057 145.25L115.514 148.12C123.657 155.311 125.613 164.469 123.926 172.869L125.185 175.443ZM137.525 165.635C136.66 166.201 135.936 166.788 134.825 167.287C134.16 167.588 134.143 167.661 135.047 168.158C135.484 168.398 136.204 168.84 136.479 169.139C136.957 169.659 137.521 169.858 137.732 169.669C137.71 168.855 137.986 166.163 137.525 165.635ZM133.434 166.673C136.233 165.781 137.731 164.424 137.412 162.153C136.944 158.822 134.18 158.118 129.001 159.42C126.511 160.046 126.288 161.225 128.652 160.617C131.638 159.85 133.981 161.009 133.664 163.211C133.479 165.111 131.963 166.218 129.301 166.218C127.896 166.218 127.462 166.344 127.652 166.855C127.781 167.201 132.28 167.04 133.434 166.673ZM128.812 158.759C133.388 157.179 135.516 154.723 134.471 151.971C133.24 148.73 129.246 148.697 125.233 151.713C123.359 153.096 123.646 153.608 125.462 152.904C127.817 151.815 129.332 151.646 130.296 152.513C132.037 154.078 130.862 156.807 128.222 157.786C126.943 158.322 126.532 158.617 126.53 159.004C126.53 159.616 126.759 159.468 128.812 158.759ZM136.532 158.709C136.65 157.75 135.574 154.424 135.109 155.189C134.986 155.392 134.559 156.331 134.019 156.819C132.445 158.24 132.742 157.702 134.306 158.137C135.175 158.378 136.402 158.995 136.532 158.709ZM124.428 151.601C129.055 148.899 130.82 145.044 128.423 142.481C126.268 140.177 122.695 141.519 119.377 145.707C117.855 147.627 118.998 147.386 121.049 145.56C123.439 143.432 126.478 144.459 126.461 147.115C126.451 148.249 124.861 150.157 123.354 151.044C122.887 151.319 122.819 151.741 122.984 152.016C123.163 152.312 123.538 152.121 124.428 151.601ZM132.538 148.783C132.297 148.057 130.556 144.94 130.182 145.047C129.787 145.846 129.758 146.898 129.285 147.745C128.64 149.019 128.722 148.819 130.776 148.812C132.306 148.808 132.491 149.023 132.538 148.783ZM118.94 145.259C122.827 141.196 123.17 136.437 119.528 135.342C117.511 134.736 114.286 136.205 114.277 137.722C114.267 138.667 114.446 138.838 115.264 138.499C118.699 137.212 121.421 140.539 118.266 144.363C117.498 145.47 117.395 145.748 117.619 145.977C117.881 146.245 118.094 146.145 118.94 145.259ZM160.824 110.51V2.55585H138.059L119.991 31.2369L119.964 38.2745C119.963 38.5176 120.374 38.6686 120.64 38.3629C121.667 37.5632 121.271 38.4028 120.09 40.2138C118.896 42.0448 119.261 43.5536 120.567 45.5085C123.334 49.6519 124.777 57.258 123.599 61.2791C123.154 62.7973 123.055 63.4105 123.345 64.2598C123.677 65.2309 123.881 65.7497 124.842 66.3755C125.677 66.9619 132.548 69.6616 143.618 76.8324L143.564 26.2298L150.538 19.4946L157.906 26.5967L158.164 110.14C158.164 111.023 160.824 111.819 160.824 110.51ZM156.815 26.8357L150.646 21.0471L144.548 26.7497C144.516 53.962 144.702 109.812 144.702 109.812L150.763 110.251C150.763 110.251 151.208 108.977 150.64 105.683C149.789 100.741 149.842 94.7043 151.21 85.5237C152.063 79.8909 151.22 75.007 149.923 69.8641C148.801 66.4372 148.761 63.2661 148.964 60.2001C149.396 55.312 150.731 51.6209 150.895 44.588C150.988 40.579 150.798 36.6535 150.944 31.7084C151.004 31.0456 151.281 31.1273 151.33 31.8112C151.516 36.2869 151.688 40.5385 151.729 44.9091C151.595 50.593 150.216 56.4422 150.065 61.6449C149.951 65.2491 149.893 66.4959 151.403 70.884C153.777 77.7807 152.215 88.3757 152.187 88.5636C151.182 95.3513 150.448 104.035 153.845 110.531L157.136 110.827L156.815 26.8357ZM114.373 78.1703C116.193 77.3277 116.553 75.8398 115.573 72.2565C115.398 71.6169 115.199 70.8567 115.13 70.5671C114.92 69.6827 114.525 69.5856 113.999 70.2891C113.684 70.7092 113.975 70.807 114.458 72.7773C115.188 75.7553 114.764 76.7402 113.665 76.7332C112.691 76.7272 111.932 75.9181 111.654 73.9859C111.559 73.3261 111.42 72.8762 111.262 72.6123C110.997 72.1697 110.679 72.2495 110.421 72.7384C110.089 73.3711 110.714 75.9768 111.545 77.2399C112.446 78.5136 113.066 78.775 114.373 78.1703ZM113.877 75.4963C114.264 74.7628 113.784 72.9577 113.534 71.7757C113.302 71.1161 113.04 70.9551 112.607 71.062C111.961 71.2213 111.993 71.9324 112.226 73.1031C112.702 75.487 112.959 75.7881 113.877 75.4963ZM119.41 71.195C121.492 69.9988 121.691 67.9358 120.292 64.1834C119.719 62.645 119.004 61.5621 118.61 61.5505C118.456 62.5291 118.313 63.0507 118.486 63.4347C118.648 63.7912 118.922 64.3369 119.117 64.7934C120.302 67.5612 119.983 69.1565 118.839 70.0215C117.77 70.829 118.446 71.5079 119.41 71.195ZM51.252 69.7525C56.1365 68.6997 60.5418 60.7908 63.3163 53.7378C65.8437 46.6319 68.5305 38.8246 68.956 32.3139C68.956 32.3139 67.1087 32.3999 66.882 32.7846C66.6728 33.1634 66.5812 33.9804 66.3851 35.1435C65.1115 41.1331 64.0995 45.6816 61.8779 51.3113C60.3357 55.2191 58.6529 59.6426 54.4764 65.5842C53.1043 67.2448 51.5347 68.2741 49.5623 68.551C49.0603 68.6215 48.215 68.5269 48.0021 68.6783C47.6279 68.9445 47.9651 69.5483 48.9306 69.7916C49.7956 70.0098 50.6738 69.8675 51.252 69.7525ZM118.552 68.8278C119.298 68.0293 119.371 67.0809 118.535 65.0755C118.301 64.5136 118.194 64.1949 117.916 64.2731C117.327 64.4387 116.639 65.9988 117.046 67.3189C117.576 69.0397 117.885 69.5428 118.552 68.8278ZM49.5475 67.5714C50.9785 67.3792 52.791 66.2332 54.1002 64.4364C56.7916 60.8894 58.6487 56.8544 60.0259 53.7169C61.1287 51.1891 63.12 45.7324 63.6608 43.7563C64.8098 39.5585 65.4388 36.8499 65.9623 33.845C66.0103 33.5689 66.0563 33.1275 65.9743 32.9847C65.4076 32.8288 64.1655 32.9219 63.784 33.3067C63.0982 38.1263 61.504 42.9614 60.3388 46.98C58.3736 53.8163 52.7715 64.7521 49.7175 65.268C48.075 65.5454 46.1932 64.107 46.4957 62.6313C46.6815 61.7252 46.8048 61.38 47.2458 61.153C48.3105 60.7758 48.9301 61.5056 47.762 61.9821C46.4089 63.167 48.8448 64.9789 50.3403 63.7133C52.876 61.5671 49.1505 57.4565 46.1011 59.3457C42.7228 61.4387 43.5908 65.0635 45.7153 66.7862C46.7865 67.6549 48.0275 67.777 49.5475 67.5714ZM73.4707 62.6636C75.558 60.506 77.1256 57.7123 78.2659 54.2196C80.737 46.3759 82.7858 37.3844 83.5284 30.3404C83.5284 30.3404 81.7455 30.1552 81.3488 30.5348C81.0687 30.8028 81.3368 31.0577 80.5781 36.2054C79.3052 43.7092 77.4486 51.162 74.7629 57.6132C73.6625 60.2217 73.3504 60.5415 72.5733 61.8962C71.4888 63.8098 71.8904 64.2971 73.4707 62.6636ZM119.778 46.312C119.585 46.211 119.602 46.2772 119.519 46.3344C119.235 46.5326 119.42 47.535 120.067 49.0817C121.768 51.8481 121.967 57.2173 121.856 59.2352C121.822 59.8412 121.76 60.1886 121.942 60.7276C122.123 61.2558 122.44 61.87 122.95 60.8406C123.509 56.8652 123.07 52.7034 121.557 49.3334C121.023 48.1348 120.502 46.9639 119.778 46.312ZM121.089 58.0347C121.387 56.9654 120.836 52.7234 120.153 51.233C119.877 50.6321 119.38 50.5856 119.439 51.2684C119.449 52.738 119.287 55.5332 119.439 56.3608C120.183 58.0888 120.762 59.1891 121.084 58.0346L121.089 58.0347ZM117.236 40.8988L116.433 40.8997C116.461 43.6738 114.018 44.4448 113.117 41.1133L112.394 41.2819C113.356 45.9839 117.699 43.828 117.236 40.8988ZM112.354 42.9901C111.936 41.7591 112.109 41.3093 111.05 41.8627C110.241 42.2855 109.757 42.7357 110.895 43.288C111.909 43.7203 112.618 43.7688 112.354 42.9901ZM118.471 42.2813C118.806 41.5985 118.766 40.9825 118.261 40.9793C117.871 40.9773 117.763 41.2898 117.652 41.9523C117.455 43.1355 117.944 43.3537 118.471 42.2813ZM118.896 37.672C119.205 37.5728 119.117 37.1335 119.034 36.5749C117.711 34.7215 114.436 35.289 113.26 35.6574C111.902 36.1011 111.562 35.9358 110.637 35.5093C109.873 35.3663 109.766 35.5533 109.58 35.9208C109.417 36.2444 109.388 36.8595 109.334 37.9311C109.289 38.8365 109.321 39.2572 109.634 38.9743C110.847 37.8778 112.25 36.508 114.297 36.4228C116.779 36.3195 118.897 37.7128 118.896 37.672ZM109.882 40.181C109.882 40.5544 110.196 40.3216 111.003 39.8111C113.941 38.0526 115.644 38.3015 118.159 39.1398C118.72 39.3265 119.066 38.736 118.459 38.2333C115.471 35.7597 111.791 37.3366 109.882 40.181ZM120.529 28.788L136.47 2.22783L47.6599 2.16223L62.7396 30.361C75.0366 27.4936 95.2777 23.8322 120.529 28.788Z" fill="#131F67"/>
<path fill-rule="evenodd" clip-rule="evenodd" d="M41.7674 236.558C43.6487 233.73 52.9639 238.768 53.4566 240.764C58.9697 236.391 65.664 236.072 71.0513 241.546C76.5907 235.445 82.5203 235.862 88.6892 239.396C87.9999 238.018 96.5766 231.929 101.789 235.798L115.887 261.098L25.574 261.391C30.9089 253.322 35.6349 243.684 41.7674 236.558ZM2.31852 104.6C1.82812 103.23 -0.153378 89.1756 4.87311 88.825C13 92.4552 23.373 105.441 28.1795 113.377C34.1358 123.211 40.1541 145.823 36.8309 144.835C36.3509 144.693 47.0882 155.526 47.8286 156.584C49.0449 158.323 29.7277 190.742 26.5368 189.579C25.5723 189.228 19.1394 185.358 19.1394 185.358L19.3237 174.541L19.4797 152.715L1.77662 151.161L2.39791 146.408C8.3355 146.9 14.4288 148.021 19.9275 146.738C23.5461 140.062 22.164 130.102 17.8128 126.088C15.511 124.677 13.3374 125.127 11.001 125.427C1.52242 123.832 6.4336 107.735 2.31852 104.6ZM160.843 111.82L160.9 115.81C154.659 117.181 143.63 111.854 140.29 120.435C140.705 129.704 142.765 133.86 144.203 136.659C145.285 139.173 152.874 136.305 155.547 138.841C163.215 148.354 161.406 161.02 161.473 172.433L158.146 174.127C135.155 160.461 117.5 118.009 115.054 105.922C114.897 98.1634 136.147 73.2276 136.147 73.2276C136.195 73.1734 143.888 77.948 143.888 77.948C144.074 78.0231 143.725 110.674 143.726 110.523C149.802 110.838 155.692 111.435 160.843 111.82ZM115.255 81.9767C88.4415 129.253 99.4067 164.23 119.137 194.413C119.137 194.413 117.432 194.805 117.243 194.636C112.923 190.763 109.904 191.441 107.695 191.406C103.471 191.339 102.304 192.608 99.8805 192.85C93.6927 193.468 94.1949 193.626 88.9461 191.634C82.3222 186.19 73.4507 182.016 66.3907 179.821C60.7312 180.334 52.1012 183.029 48.8376 180.847C71.5401 138.619 68.1395 111.586 44.6368 67.3249C46.5855 67.9038 46.8885 69.7377 48.3474 70.1898C53.1784 72.0707 59.8353 71.3575 63.8248 69.6031C70.1641 66.694 76.938 74.5105 96.4128 83.1118C98.0003 83.9378 100.007 82.6339 101.76 82.2763C105.351 81.5434 108.429 79.9948 111.109 80.9017C111.968 81.1926 115.255 81.9767 115.255 81.9767ZM61.1334 26.7159C59.9779 24.5484 48.1564 1.88135 48.1564 1.88135L136.088 2.41532L122.896 24.2835C121.65 25.4705 115.453 28.7792 109.133 21.2874C109.014 22.3639 99.7531 29.0217 91.7926 21.0043C87.0018 25.3919 82.1156 27.9339 74.0552 22.9948C73.8761 24.3721 67.5896 30.5505 61.1334 26.7159Z" fill="#E2CF00"/>
<path fill-rule="evenodd" clip-rule="evenodd" d="M70.7541 241.039C62.2345 232.988 53.3654 240.255 53.5684 240.715C50.1966 237.26 46.899 234.43 42.4539 235.82C42.4539 235.82 42.4545 234.608 42.4879 234.58C55.7398 237.027 76.0368 237.661 99.7627 232.653L100.981 235.222C94.6175 232.941 91.3384 236.018 88.5184 239.61C78.3059 233.183 75.8144 238.822 70.7541 241.039ZM90.6247 147.399L96.6523 147.28C97.7875 164.974 112.432 192.048 112.784 192.048C111.764 190.619 102.096 191.746 102.167 191.926C96.8513 177.61 91.0141 163.308 90.6247 147.399ZM55.4716 189.373C55.4716 189.373 53.5327 184.301 52.3721 182.131C58.7 171.223 63.8907 159.934 66.5534 147.38L70.8636 147.419C69.5865 164.75 55.8437 191.072 55.4716 189.373ZM133.01 187.052C142.503 169.762 140.865 144.841 113.932 131.068C113.932 131.068 114.634 112.801 116.637 112.759C117.089 112.901 128.827 112.607 128.827 112.607C131.902 104.989 136.852 95.7759 143.766 89.5549L143.94 109.974C138.822 110.483 135.701 112.132 134.151 116.172L127.06 117.765C127.581 138.277 135.228 157.23 157.906 174.252C152.486 178.953 133.963 188.498 134.034 188.33L133.01 187.052ZM19.3753 174.164L19.5768 152.902C23.016 152.151 25.7265 153.158 28.566 146.936C28.566 146.936 33.3311 149.219 34.9143 150.061C30.4604 158.106 26.6152 166.702 19.3753 174.164ZM64.5256 136.519L64.7592 125.724L74.9127 126.02C74.0507 129.68 73.7814 133.34 74.9326 137.001L64.5256 136.519ZM87.6899 136.388C88.3832 132.856 88.8784 129.304 87.4403 125.556L98.4346 125.745L98.1755 136.496L87.6899 136.388ZM66.7815 115.28C64.9525 94.1072 50.5805 70.1433 50.3787 70.653C52.0719 70.9267 55.0538 71.7737 56.6956 70.989C58.6825 71.3221 60.4035 71.095 60.4975 70.9096C60.63 70.1692 73.8577 101.651 72.0921 115.231C71.8816 115.69 67.2126 115.721 66.7815 115.28ZM92.193 115.465C93.7444 105.684 97.7495 87.7928 107.208 73.2836C108.283 75.8598 109.185 78.5089 110.66 80.9167C103.529 91.3903 99.1345 103.362 96.4681 115.582L92.193 115.465ZM26.452 110.193C22.1244 101.281 4.12125 87.2507 5.04215 88.6684C12.4945 81.9246 20.8064 77.6416 29.1029 73.3149C29.1029 73.3149 30.5777 74.7281 30.3542 75.0838C25.2537 83.1991 22.7807 100.393 27.7191 110.247C32.4648 120.773 40.8836 126.995 49.4665 131.88C48.8024 138.461 48.478 143.218 46.8746 149.76C46.8746 149.76 41.4814 146.897 37.0614 145.054C36.3582 132.627 33.8105 121.511 26.452 110.193ZM74.134 22.8632C80.4792 26.7685 86.1624 26.3569 91.6719 21.0571C98.5885 27.3933 106.068 24.4423 109.229 21.5858C112.154 24.9124 115.965 26.758 121.537 25.6589L120.157 28.5838C120.487 27.0296 81.7231 24.4926 62.9676 29.7938C62.9676 29.7938 61.8712 27.5869 61.9932 27.5681C63.6256 27.4682 69.0583 29.4998 74.134 22.8632Z" fill="#D40000"/>
<path fill-rule="evenodd" clip-rule="evenodd" d="M46.8656 1.17848L62.5345 30.6476C62.5345 30.6476 62.9936 30.5624 63.2237 30.517C84.9412 26.2314 102.142 25.6451 120.617 28.9256L137.04 1.49065C107.15 1.14719 46.8656 1.17848 46.8656 1.17848ZM48.6123 2.43371L135.745 2.53041L130.844 10.6468C127.909 9.73263 126.273 11.0914 125.862 13.9311C125.862 13.9311 125.499 13.7732 124.819 13.6989C120.524 13.2302 119.982 18.944 123.991 19.6338C125.014 19.81 125.187 19.6048 125.187 19.6048C121.612 22.6379 119.581 20.5916 117.898 19.5903C117.852 19.9445 114.694 22.3411 111.715 19.4742C115.981 19.9044 116.645 15.5877 114.605 13.9456C114.179 13.5221 113.744 13.1911 113.744 13.1911C114.748 12.3081 114.966 11.1343 114.323 9.79068C113.029 7.08864 108.975 7.24645 108.355 10.197C108.114 11.3451 108.106 11.5465 108.106 11.5465C104.832 11.7624 104.167 14.8836 105.292 16.6156C105.932 17.6002 107.338 17.8138 108.637 17.7475C106.886 20.2519 102.879 19.3994 101.095 17.3363C98.2585 20.7018 95.0263 20.2921 93.4133 18.4875C94.509 18.4756 95.2645 18.4596 96.2705 17.5201C97.9908 15.9137 97.1456 13.0646 94.7151 12.2672C94.2435 12.1125 93.9037 12.0807 93.8775 12.0786C93.8945 12.0542 93.9405 11.8965 94.045 11.0386C94.6497 6.06989 87.2786 6.56082 87.9908 11.4498C88.0738 12.0163 88.2253 12.3204 88.2253 12.3204C88.2253 12.3204 87.4433 12.2763 86.9954 12.4849C82.902 14.3907 85.7222 19.6393 88.8858 18.2892C89.186 18.1611 90.0021 17.7562 90.1206 17.762C86.2022 22.6681 82.9132 19.1904 82.0468 18.6568C79.4007 22.6209 74.8045 19.9164 74.7099 19.6387C74.9962 19.719 75.8579 19.5395 76.677 19.1163C79.2667 17.7531 78.534 14.2451 76.5142 13.4813C75.8954 13.2632 75.1481 13.2403 74.3079 13.3071C74.3079 13.3071 74.3719 12.4239 74.2889 12.1124C73.0158 7.33505 67.1323 9.72028 68.5793 13.757C68.7062 14.1111 69.0483 14.468 69.0483 14.468C69.0483 14.468 68.2506 14.9574 67.8949 15.2806C65.0861 17.8325 67.9449 22.0425 71.2259 20.2917C71.6495 20.0657 72.06 19.5909 72.1783 19.6194C70.6346 22.468 68.2921 23.4626 64.9515 21.1043C62.8911 24.403 59.5292 23.0327 58.5814 21.38C61.7223 21.6705 63.7624 15.5896 57.7247 15.3919C57.2552 13.7406 57.2787 11.2245 53.4509 11.6577L48.6123 2.43371ZM91.1639 12.867C91.8554 12.867 92.4129 13.4354 92.413 14.1343C92.413 14.8332 91.8554 15.4016 91.1639 15.4016C90.4724 15.4016 89.91 14.8332 89.91 14.1343C89.91 13.4354 90.4724 12.867 91.1639 12.867ZM110.633 13.0169C111.366 13.0169 111.959 13.6211 111.959 14.3616C111.959 15.1021 111.366 15.7014 110.633 15.7014C109.9 15.7014 109.307 15.1021 109.307 14.3616C109.307 13.6211 109.9 13.0169 110.633 13.0169ZM72.4701 14.4825C73.1766 14.4825 73.7478 15.06 73.748 15.774C73.748 16.488 73.1766 17.0703 72.4701 17.0703C71.7636 17.0703 71.1875 16.488 71.1875 15.774C71.1875 15.06 71.7636 14.4825 72.4701 14.4825ZM127.14 16.0739L126.029 18.0667C124.805 16.9818 125.649 15.5592 127.14 16.0739ZM57.2269 18.8213L56.1231 16.7607C58.0994 16.8955 57.5168 18.3254 57.2269 18.8213ZM91.0012 17.6991C98.4788 26.3099 105.185 23.7628 109.571 18.0377C111.451 22.9173 115.643 26.2913 122.856 23.0101C122.42 23.7904 121.325 25.1673 121.325 25.1673C114.95 26.9027 111.786 23.8709 109.326 20.9834C102.841 26.4246 96.7342 25.1055 91.6951 20.3062C87.3941 25.7786 80.4293 26.9545 73.9825 22.4877C71.0352 26.8837 66.8073 28.6589 61.4912 26.4588C61.4912 26.4588 60.3633 24.667 60.266 24.5531C61.0359 25.2062 70.8267 29.3136 73.2167 19.4356C76.625 25.2811 87.7991 25.5913 91.0012 17.6991ZM91.7526 21.2397C100.164 29.1889 108.991 22.3151 109.216 21.8298C109.348 22.2718 114.149 28.0651 121.071 25.888L119.946 27.8373C106.922 25.6103 94.941 24.1796 67.5023 28.2582C67.5023 28.2582 71.8818 26.9473 74.0973 23.4164C75.3305 24.2258 84.8491 29.5955 91.7526 21.2397ZM62.2713 27.8277C62.2713 27.8277 65.9326 28.2618 66.2197 28.3355C66.541 28.5875 63.1369 29.5319 63.1232 29.4625L62.2713 27.8277ZM69.6943 65.7541C69.4726 65.7611 69.1961 66.0133 68.7371 66.47C67.744 67.4581 67.5183 67.5878 66.5547 67.7276C65.828 67.833 64.2933 68.7255 63.3625 69.585C63.1109 69.8174 62.6303 70.0113 62.0559 70.1122C61.5568 70.1999 60.8698 70.3194 60.5292 70.3783C60.1888 70.4371 59.8188 70.5459 59.706 70.6153C59.2173 70.9163 58.4212 70.9623 57.5284 70.7459C56.6674 70.5371 56.5294 70.5426 55.5805 70.8378C54.1981 71.2678 53.2935 71.2686 52.6133 70.8378C51.9332 70.4072 50.8528 70.2464 50.1676 70.4701C49.1542 70.8011 46.5295 69.213 46.5352 68.2742C46.5352 68.0612 45.0435 66.9319 44.6687 66.9295C43.3383 66.7302 31.6488 71.3946 31.7084 71.6649C46.0621 89.5821 58.1449 116.88 49.0429 150.285L47.435 149.506C48.786 143.434 49.3211 137.323 49.7369 131.116C22.7951 119.36 20.476 92.0237 30.933 74.7654L29.1575 72.8548C22.8208 76.2722 16.3818 78.2123 0.719482 91.4915L0.762482 112.987C0.801482 132.419 0.791481 151.354 0.791481 151.354C6.45947 151.988 12.7017 152.506 18.8583 153.042C18.8583 153.042 18.7793 172.259 18.6382 179.775C18.5189 186.133 18.753 185.734 18.753 185.734L39.1411 196.598C37.7082 190.876 41.2445 188.603 44.2046 188.841C42.896 183.324 46.1438 180.799 49.852 181.507C52.3567 181.985 53.2334 183.381 54.6666 187.993C54.8995 188.743 55.2199 189.746 55.2199 189.746L56.6489 189.692C58.4372 185.81 59.6322 180.871 63.8407 180.23C69.3484 179.392 71.3996 183.217 71.397 187.041C76.7339 182.288 83.1264 185.967 82.7108 193.067C85.3959 191.322 89.9457 189.745 92.8123 196.472C93.8901 196.243 94.4391 195.029 95.9548 194.649C96.5216 194.529 97.807 193.832 97.807 193.832L97.823 193.598C97.823 193.598 99.0144 193.182 100.612 192.917C101.982 193.434 101.583 193.416 102.321 192.496C103.144 192.07 104.478 191.789 105.508 191.882C106.587 191.98 107.067 192.059 107.7 191.781C108.685 191.346 109.605 191.235 110.188 191.892C110.607 192.364 111.213 192.136 111.863 192.11C113.164 192.057 114.898 192.597 115.439 193.778C116.236 194.6 117.98 195.433 117.98 195.433L119.392 195.104L119.554 194.576L131.103 190.122C107.555 164.062 108.168 129.49 113.716 111.99L115.845 113.026C114.716 118.212 113.434 123.539 113.601 131.271C134.806 140.826 145.357 165.525 132.5 187.084L133.86 188.859C139.208 186.59 152.661 178.956 157.311 174.808L158.301 174.89C158.301 174.89 161.121 173.045 162.365 172.06L162.532 114.849L161.546 115.11L161.369 111.768L143.886 110.365C144.108 110.197 144.276 110.129 144.326 109.794L144.226 78.1222C143.577 77.1185 128.934 68.4497 123.488 66.4216C123.27 66.4206 123.42 66.7926 123.498 67.6985C123.766 70.8053 121.691 73.5704 119.287 73.5754C118.422 73.5774 118.272 73.9488 118.315 75.7327C118.376 78.2694 117.469 79.9735 114.826 80.9373C111.693 82.0798 109.573 80.4232 107.829 73.9092C107.371 72.1984 106.476 72.6263 105.618 74.9636C105.192 76.1238 103.814 78.9398 102.991 80.4245C102.357 81.5653 101.353 82.0717 99.99 82.6786C98.9269 83.2099 96.626 83.1178 95.2998 82.4367C92.8958 81.2021 91.963 79.72 91.27 76.0471C91.179 75.5672 90.8673 75.6085 90.0879 76.2019C85.843 79.4342 79.8736 76.0926 79.9083 70.504C79.9183 68.8633 79.8523 68.7979 78.8985 69.585C76.0199 71.9606 72.1082 70.7557 70.5422 67.0117C70.1757 66.1352 69.9793 65.7446 69.6943 65.7541ZM45.2956 67.7373C45.5956 67.724 46.5304 68.9804 46.5304 68.9804C47.3925 69.9439 48.5507 70.4316 49.756 71.1473C49.8682 70.9773 63.8104 89.888 66.1814 115.962L72.6663 115.995C71.457 90.6602 64.5433 78.4832 61.3715 70.6685L63.6975 69.9236C68.9131 80.0232 75.2704 100.521 75.0593 118.467H64.3484C62.8363 100.492 55.9204 82.9671 46.248 69.6721C45.5747 68.6508 45.0473 67.9386 45.243 67.7567C45.257 67.7438 45.2756 67.7381 45.2956 67.7373ZM41.1941 70.4121L42.2805 73.856C42.2805 73.856 42.411 73.0524 42.7447 72.7484C44.861 70.8209 46.8863 73.3583 45.9322 76.8017C45.7143 77.8618 45.2908 79.9506 45.2908 79.9506C45.2908 79.9506 43.1644 78.8483 42.0938 78.4946C39.1425 77.2277 38.1592 74.7297 40.414 74.4461C40.7915 74.3986 41.5674 74.3639 41.5674 74.3639C40.6298 73.6195 38.5618 71.9164 38.5618 71.9164L41.1941 70.4121ZM51.1009 70.7991C51.9923 71.3103 54.2928 71.862 55.614 71.3601C56.6818 70.9545 57.4946 71.1771 58.6053 71.273C59.2421 71.328 60.51 71.0457 60.51 71.0457C66.8511 84.5277 71.2127 100.524 71.9389 115.154L66.9519 115.183C65.0693 99.6415 59.1175 83.8541 51.5651 72.1437C51.2309 71.6334 50.7866 70.8181 51.1009 70.7991ZM71.9341 71.0312C73.8649 71.0546 75.8851 72.9999 76.9833 76.1826C77.5947 77.955 77.8336 77.8477 78.6535 77.5611C80.7601 76.8318 83.003 79.1691 80.1803 79.5588C77.4093 80.0215 78.9906 85.4998 78.754 85.9822C77.6312 86.1806 75.5212 81.5244 75.5762 80.1392C75.7111 76.7437 72.5552 73.9044 70.594 75.3313C69.6647 76.0074 69.7658 76.4842 69.4789 76.2406C68.5962 75.4915 68.4175 73.4258 69.4499 72.255C70.1963 71.409 71.0565 71.0206 71.9341 71.0312ZM129.298 72.2018C129.298 72.2018 129.407 76.6672 129.241 77.653C128.912 80.6296 125.065 80.9427 124.915 78.5624C124.286 79.5134 123.854 80.6964 123.603 81.7596L120.875 79.8635C121.911 79.1119 122.899 78.4523 123.666 77.5224C121.643 77.6773 120.513 75.9082 121.866 74.4026C123.369 72.6779 127.525 72.492 129.298 72.2018ZM28.9947 73.6142L30.2008 74.9879C19.4515 94.2443 23.2415 118.86 49.1865 131.793C49.0149 137.701 48.2662 143.676 46.8702 149.22L37.2983 144.529C37.3623 122.757 25.165 102 5.69207 88.3572C12.7579 82.6195 20.5748 77.5794 28.9947 73.6142ZM107.369 73.7786C107.825 76.3208 110.207 80.9252 110.379 80.6616C110.354 80.5105 100.467 93.4607 96.17 115.12L92.4992 115.134C94.9056 100.702 99.7077 87.084 107.369 73.7786ZM137.841 74.3832L139.794 75.578C129.548 84.2474 122.801 95.2386 117.845 107.091L115.256 105.852C122.94 88.6592 130.531 81.0237 137.841 74.3832ZM140.574 76.3035C141.11 76.338 141.746 77.024 142.732 77.5708C143.697 78.1053 143.457 78.3895 141.641 79.7958C139.494 81.4591 139.292 81.3854 139.31 79.0122C139.322 77.438 139.716 76.3881 140.469 76.3083C140.504 76.3043 140.539 76.3015 140.574 76.3035ZM138.214 78.751C138.327 78.745 138.418 78.7826 138.478 78.8768C138.635 79.5047 138.618 80.944 138.367 82.3642C138.165 83.2992 135.411 85.6483 134.429 86.5772C134.035 86.8385 133.855 86.743 133.783 86.2773C133.814 85.5399 133.884 84.5581 133.898 83.5589C133.898 83.2512 133.838 82.9288 134.113 82.6931C135.462 81.0834 137.426 78.7934 138.214 78.751ZM143.33 79.5152C143.347 79.5159 143.357 79.5182 143.368 79.5252C143.623 79.6794 143.581 82.9064 143.402 83.1191C142.604 83.3278 140.455 82.9857 139.904 82.6886C139.783 82.3137 142.816 79.494 143.33 79.5152ZM47.3584 80.56L48.1049 83.7234C48.1049 83.7234 48.3188 83.2991 48.3729 83.2155C49.8565 80.9224 51.6615 82.2667 51.6321 85.4502C51.6221 86.4557 50.718 90.4757 50.718 90.4757C50.718 90.4757 45.1495 87.7727 44.7118 86.5868C44.2811 85.42 44.8927 84.3932 45.9178 84.299C46.3011 84.2548 46.7031 84.2231 47.143 84.299L44.75 81.8273L47.3584 80.56ZM111.116 80.9808L113.643 81.924C108.373 90.5876 102.935 99.1447 98.9746 118.661H88.3833C89.8645 106.734 92.8665 95.0091 98.2232 83.5976C98.2232 83.5976 100.303 82.9519 101.478 82.5674C101.478 82.5673 92.7237 102.811 91.7047 115.826L96.8209 115.937C99.5507 103.255 104.661 90.1095 111.116 80.9808ZM91.0634 81.2952C92.4865 81.2416 93.5363 82.2531 93.4564 84.0475C93.4384 85.6884 93.2897 85.927 92.1402 85.2712C90.6314 84.4104 89.438 84.3916 88.0865 85.3679C87.3426 85.9053 86.6125 86.3498 86.6125 86.3498C86.6125 86.3498 87.2645 83.4993 88.2636 82.6012C89.2206 81.7409 90.2095 81.3274 91.0634 81.2952ZM85.6313 85.513C85.5286 86.4776 85.2472 86.9197 84.9948 87.7429C84.9948 87.7429 85.8236 87.417 86.22 87.2302C88.1021 86.3433 90.0635 87.9858 90.0344 89.9098C90.1194 91.1934 88.7391 92.7309 87.0958 92.7443C86.5225 92.7493 85.9157 92.5665 85.3298 92.1252C85.7549 94.4766 85.8395 95.5643 84.1381 96.7444C82.7146 97.7019 79.7151 96.6074 79.8835 93.9777L79.9888 92.3573L78.5483 92.546C74.5247 92.7125 74.4543 87.7071 77.7011 86.9206C78.9978 86.6107 80.4052 87.6848 80.4052 87.6848C79.7885 86.4577 79.776 84.3457 80.6062 83.3703C82.6494 80.9696 85.8828 83.1521 85.6313 85.513ZM120.765 82.3884C120.985 84.2617 121.721 86.3043 121.512 88.0524C121.198 90.2868 119.318 91.6102 117.841 90.1613C117.658 89.9826 117.329 89.6099 117.329 89.6099C116.663 90.4625 116.247 92.8749 116.247 92.8749L113.639 91.2497C113.639 91.2497 115.45 89.9648 115.95 89.2327C116.09 89.0289 116.156 88.6425 116.156 88.6425C114.705 89.1011 113.473 87.601 113.868 86.2773C114.654 84.109 118.558 83.3054 120.765 82.3884ZM138.994 83.7427C139.971 83.712 141.482 83.9917 142.675 84.12C143.593 84.2818 143.084 84.8048 141.028 86.8287C139.141 88.6876 139.2 88.5125 137.745 88.4878C134.348 88.4299 133.753 88.5071 135.73 86.3498C136.767 85.2195 137.672 84.1986 138.415 83.8201C138.573 83.7741 138.769 83.7498 138.994 83.7427ZM132.869 84.1345C132.912 84.1365 132.947 84.1526 132.979 84.1829C133.204 84.3951 133.128 85.3633 133.103 86.7949C133.077 88.3185 133.093 88.3193 132.462 89.1166C131.658 90.135 130.99 91.174 130.15 92.1542C129.423 92.9514 129.446 92.8661 129.011 90.9498C128.589 89.0913 128.824 88.5126 131.193 85.8178C131.995 84.7782 132.567 84.1208 132.869 84.1345ZM143.479 85.1938L143.508 88.9618C136.497 95.8902 131.733 103.683 128.494 112.271L126.054 111.289C130.282 100.316 136.612 91.7586 143.479 85.1938ZM82.7072 87.472C81.5484 87.472 80.611 88.4194 80.611 89.5906C80.6111 90.7617 81.5484 91.714 82.7072 91.714C83.866 91.714 84.8082 90.7617 84.8082 89.5906C84.8082 88.4194 83.866 87.472 82.7072 87.472ZM82.6932 88.1395C83.4931 88.1395 84.1431 88.7966 84.1432 89.6051C84.1432 90.4136 83.4931 91.0707 82.6932 91.0707C81.8932 91.0707 81.2478 90.4136 81.2478 89.6051C81.2478 88.7966 81.8932 88.1395 82.6932 88.1395ZM4.80697 89.0343C26.6753 103.214 36.4808 125.195 36.4371 144.079L35.2024 143.518C33.9226 116.835 19.5718 100.429 4.06027 89.8131L4.80697 89.0343ZM134.276 89.2375C134.771 89.2395 135.445 89.317 136.42 89.431C138.23 89.5286 138.452 89.6441 137.205 91.09C136.863 91.486 136.208 92.3142 135.745 92.9378C135.283 93.5613 134.72 94.2121 134.463 94.3018C134.082 94.4345 130.904 94.2829 129.997 94.1567C129.7 94.1153 130.09 93.8089 131.639 91.5737C132.826 89.8605 132.952 89.2933 134.075 89.2423C134.139 89.2393 134.205 89.2375 134.276 89.2375ZM143.383 89.963C143.383 89.963 143.817 102.125 143.503 109.882C138.514 109.695 135.585 111.609 134.367 115.231L129.126 112.61C132.971 102.628 138.114 95.6828 143.383 89.963ZM127.944 90.2436C128.227 90.2476 128.389 90.8406 128.471 92.0091C128.8 94.0996 128.764 94.3431 127.901 95.6851C127.471 96.3533 126.882 97.2967 126.594 97.7844C126.094 98.6351 125.738 98.8884 125.613 98.4761C124.931 96.2205 124.715 94.8244 124.958 94.3695C125.356 93.6217 127.217 90.949 127.48 90.6015C127.662 90.3605 127.815 90.2416 127.944 90.2436ZM3.19888 90.4709C20.7775 101.47 33.6373 120.256 34.1686 142.952C34.1686 142.952 30.4224 141.175 28.1096 139.875L27.99 137.67L29.2104 137.631L29.6028 140.117L32.2877 140.03L31.5746 133.824L27.3726 134.226L26.5255 130.709L27.7985 130.434L28.502 132.702L31.2348 131.972L29.7799 126.443L25.5587 127.609L24.2091 123.875L25.6113 123.367L26.7456 125.602L29.3157 124.697L26.8892 119.154L23.0078 121.006L21.036 117.388L22.5531 116.571L23.7735 118.723L26.1761 117.466L23.204 112.368L19.5188 114.448L17.6667 111.642L18.8105 110.834L20.074 112.31L22.1846 110.801L18.9493 106.404L15.4221 109.195L12.8137 106.143L14.015 105.112L15.8097 106.738L17.815 104.967L13.9719 100.73L10.6123 103.826L8.10926 101.63L9.33446 100.261L10.8947 101.465L12.5553 99.4772L8.37246 95.9946L5.23767 99.129L2.23208 97.1217V95.627C3.20797 96.0077 4.24087 96.4508 5.16587 96.9475L6.72126 94.5678L2.23208 91.506L3.19888 90.4709ZM52.1541 91.4093L52.8193 95.2885C53.4503 94.2336 53.9527 93.5071 55.3176 93.9148C56.9569 94.5898 56.9795 97.0848 55.5904 100.904C55.333 101.612 55.016 102.225 55.016 102.225C55.016 102.225 54.2975 101.923 53.8196 101.591C52.8164 100.898 51.1271 100.113 50.2636 98.7372C49.3594 97.2963 49.3396 95.2806 51.0007 95.453C51.3307 95.455 51.9818 95.6126 51.9818 95.6126L49.4883 92.4008L52.1541 91.4093ZM2.23208 92.5653L5.27597 94.5485L4.64417 95.7093L2.23208 94.6113V92.5653ZM78.5437 93.4795C79.4256 94.7256 76.3222 98.3975 80.3815 99.8643C80.3815 99.8643 80.4815 100.709 79.6349 101.223C77.6491 102.683 74.7967 100.019 75.6818 97.2765C76.2477 95.5227 77.8833 93.4895 78.5437 93.4795ZM86.9669 93.5956C86.9669 93.5956 88.1909 94.4994 88.4362 94.7371C90.6961 96.9274 90.7179 100.068 88.6707 101.165C87.3087 101.896 85.7689 101.307 85.2344 100.246C84.9868 99.7554 85.394 99.2418 85.914 99.2451C86.8891 99.2511 87.6334 97.3633 87.345 95.3756C87.2307 94.5879 86.9669 93.5956 86.9669 93.5956ZM113.634 94.326C113.634 94.326 113.903 97.0103 114.29 98.2003C115.477 101.537 113.961 103.57 111.744 102.452C111.427 102.292 110.868 101.567 110.868 101.567L110.648 105.403L107.494 104.474C108.176 103.365 109.158 102.577 109.892 101.33C109.892 101.33 109.419 101.313 109.006 101.311C107.122 101.376 106.427 99.2655 108.403 97.5281C109.875 96.2452 113.634 94.326 113.634 94.326ZM130.122 95.216C130.503 95.213 130.979 95.2444 131.634 95.245C133.635 95.247 134.148 94.9728 133.266 96.2317C132.922 96.7224 132.083 98.0884 131.835 98.5534C131.331 99.4974 131.23 99.7944 130.39 99.9803C129.173 100.224 127.794 100.056 126.403 100.121C126.101 100.106 126.722 99.0585 127.068 98.4083C127.917 96.8143 128.435 95.7202 129.164 95.3852C129.451 95.2536 129.74 95.2187 130.122 95.216ZM123.938 96.4494C124.18 96.4365 124.359 96.8743 124.589 97.7795C125.126 99.8919 125.265 99.9446 124.398 101.678C123.96 102.553 123.216 104.035 122.909 104.648C122.123 106.221 122.079 106.206 121.584 104.798C120.634 102.098 120.551 102.375 122.12 99.3419C123.099 97.4472 123.585 96.4683 123.938 96.4494ZM8.58776 97.1894L11.4163 99.4821L10.6123 100.271L9.04726 99.1049L6.73566 101.606L10.5357 105.107L13.7518 101.905L16.5085 104.817L15.6662 105.538L14.0485 103.961L11.6269 106.051L15.2402 110.365L18.8823 107.56L21.1652 110.583L20.2319 111.173L18.7435 109.712L16.3745 111.371L19.3226 115.57L23.0365 113.417L25.1471 116.924L23.9746 117.495L22.7781 115.57L20.1123 117.122L22.6297 122.032L26.6403 120.339L28.2532 124.088L27.028 124.591L25.999 122.337L23.2997 123.415L25.1088 128.572L29.1769 127.391L30.1628 131.222L28.9089 131.575L28.2915 129.452L25.7023 130.081L26.7839 135.256L30.9237 134.99L31.4167 139.174L30.1293 139.232L29.8086 136.736L27.1716 136.77C27.1856 137.65 27.2864 139.445 27.2864 139.445L25.6927 138.7C23.3249 122.79 14.8803 109.531 2.29908 100.3L2.23208 98.3987L5.29507 100.362C5.29507 100.362 8.10386 97.8338 8.58776 97.1894ZM129.428 100.899C130.305 100.892 129.917 101.58 128.849 103.637C127.656 105.932 127.444 105.979 125.211 106.53C122.495 107.199 122.575 107.349 124.044 104.184C124.61 102.963 125.023 101.895 125.542 101.489C126.222 100.957 127.541 101.161 128.973 100.943C129.152 100.916 129.302 100.9 129.428 100.899ZM2.38048 101.577C15.4462 110.095 23.7054 127.717 24.7307 138.4C24.7307 138.4 24.3771 138.161 23.6635 137.829C22.673 137.37 22.4298 137.069 22.1415 135.614C19.5534 122.55 12.257 111.464 2.43788 103.637L2.38048 101.577ZM120.205 103.758C120.758 103.642 121.765 107.652 121.464 108.493C121.248 109.098 119.304 107.67 118.597 107.366C118.244 107.214 119.832 103.837 120.205 103.758ZM57.1985 103.942L57.1365 108.102C57.1365 108.102 57.6323 107.506 57.8878 107.318C58.8597 106.601 60.3444 107.594 60.4005 108.822C60.4785 110.525 60.2237 111.216 58.8738 113.582C58.4559 114.314 57.8256 115.246 57.8256 115.246C57.8256 115.246 56.232 114.098 54.4898 112.344C52.6068 110.448 52.9665 107.917 54.6143 107.908C55.1074 107.904 55.5469 108.074 55.9783 108.213C55.6225 106.988 54.2984 104.609 54.2984 104.609L57.1985 103.942ZM108.269 107.057C108.269 107.057 109.122 108.192 110.102 111.178C111.038 114.029 109.597 116.176 107.642 115.101C107.292 114.908 106.924 114.491 106.924 114.491C106.787 115.873 107.031 118.36 107.063 118.38L103.909 117.824C103.909 117.824 105.642 115.043 105.766 114.356C105.766 114.356 105.57 114.511 104.704 114.511C101.535 114.509 102.192 110.699 105.852 108.585C106.402 108.268 108.269 107.057 108.269 107.057ZM126.437 107.105C127.122 107.074 126.798 107.745 126.039 109.311C125.2 111.042 125.41 110.892 123.637 109.978C121.157 108.754 121.303 108.563 124.446 107.705C125.439 107.334 126.077 107.121 126.437 107.105ZM81.4584 107.613C83.9424 107.628 85.7742 110.105 85.4067 113.625C84.7757 119.669 85.1383 119.296 85.7896 119.899C86.9758 120.998 85.3699 121.657 83.9566 120.61C82.9727 119.881 82.6522 119.161 82.698 115.826C82.751 111.993 82.5461 111.017 81.1904 111.352C80.3442 111.561 80.0776 112.288 80.171 114.873C80.3023 118.501 80.0649 119.415 78.7017 120.576C77.2319 121.726 75.6458 120.701 76.9883 119.942C77.6023 119.245 77.7178 118.357 77.4813 116.165C77.2224 114.297 76.1446 107.581 81.4584 107.613ZM143.809 110.67C148.589 110.851 160.675 111.845 160.675 111.845L160.78 115.454C160.241 115.789 151.22 114.399 144.585 114.525C143.033 114.554 141.935 115.247 140.813 114.665C141.891 115.117 141.792 120.56 137.047 119.241C133.023 117.779 134.984 112.28 140.129 110.893C141.455 110.708 142.597 110.652 143.809 110.67ZM116.271 113.079L126.599 118.225C128.045 137.821 134.738 158.524 157.535 174.218C153.842 176.888 144.578 183.448 133.989 187.94L133.122 187.002C145.695 165.393 136.197 141.609 114.18 130.845C114.239 124.847 114.985 118.93 116.271 113.079ZM152.601 116.363C154.582 116.285 155.097 116.515 155.267 117.422C155.427 118.279 156.057 118.481 156.803 118.206C158.621 117.536 159.73 120.795 158.225 122.24C157.29 123.138 157.453 123.483 158.225 123.488C160.123 123.5 160.067 126.011 158.139 127.435C157.338 128.026 157.349 128.294 158.187 128.712C159.589 129.412 159.307 130.795 157.526 131.933C156.557 132.553 156.526 132.705 157.325 132.925C159.34 133.479 157.284 136.38 155.081 135.866C154.177 135.655 153.316 135.852 152.453 136.422C150.093 137.416 149.698 137.613 147.15 137.293C144.913 136.878 143.913 136.133 143.336 134.149C142.024 130.112 140.609 125.641 140.593 121.234C140.396 118.528 144.883 116.082 147.008 115.976C148.739 115.713 150.725 116.346 152.606 116.363H152.601ZM11.335 116.431C13.7085 116.431 15.6327 118.375 15.6327 120.774C15.6327 123.173 13.7085 125.118 11.335 125.118C8.96136 125.118 7.03716 123.173 7.03716 120.774C7.03716 118.375 8.96136 116.431 11.335 116.431ZM59.0985 117.708L58.7108 121.505C58.7108 121.505 59.3423 121.006 59.4909 120.881C60.6089 119.937 62.3761 120.992 61.9749 122.462C61.8442 123.758 59.631 127.609 58.7491 128.417C58.7491 128.417 55.1995 124.509 54.8199 123.744C53.9762 122.046 55.1288 120.275 56.6624 121.026C56.8811 121.133 57.5144 121.606 57.5144 121.606L56.3897 118.003L59.0985 117.708ZM11.6222 118.012C10.1032 118.065 8.66116 119.007 8.85586 120.262C8.98556 120.798 9.79506 120.024 10.5932 119.517C11.2044 119.128 11.9401 119.067 12.6367 119.372C13.2543 119.594 13.5188 120.169 13.8762 120.615C14.1799 120.99 14.5117 121.298 14.6994 121.113C14.859 120.914 14.7944 120.664 14.7524 120.441C14.4249 118.73 13.0248 117.97 11.6222 118.012ZM127.36 118.603L128.897 119.396C130.964 147.089 144.82 163.369 159.378 173.067L158.22 173.773C140.354 162.205 127.95 141.48 127.36 118.603ZM129.686 119.739C129.686 119.739 133.544 121.735 135.563 122.656L135.64 125.161L134.291 125.21L133.831 122.854L131.027 123.057L131.902 128.852L136.425 128.291L137.057 131.793L135.525 132.117L134.741 129.965L132.147 130.603L133.826 136.233L137.904 134.903L139.182 138.584L137.813 139.087L136.937 136.93L134.252 137.878L136.329 143.373L140.574 141.994L142.288 145.433L141 146.009L139.77 143.876L137.224 145.191L140.211 150.323L144.044 148.292L145.834 151.034L144.427 151.987L143.149 150.309L141.087 151.682L144.389 156.239L147.691 153.738L150.161 156.616L149.07 157.593L147.385 155.866L145.389 157.666L149.323 162.029L152.74 159.03L155.167 161.313L154.449 162.077L152.817 161.047L150.654 163.368L154.784 167.001L158.062 163.368L160.843 165.439V166.967L158.359 165.695L156.694 168.23L160.843 171.403L160.814 172.651C137.127 158.368 130.894 136.216 129.686 119.739ZM81.1904 120.015C82.2145 119.984 83.2952 120.957 85.0813 123.048C90.0729 128.892 88.7402 137.932 82.2146 142.647C81.2637 143.334 80.8817 143.273 79.7211 142.265C73.0275 136.453 72.6413 128.68 78.6012 121.853C79.6314 120.673 80.3939 120.039 81.1904 120.015ZM105.115 120.818C106.346 122.725 107.9 124.687 108.078 127.004C107.99 129.295 106.462 129.716 104.881 128.383C104.68 129.586 105.359 131.928 105.359 131.928L102.497 131.619C102.497 131.619 103.62 129.637 103.665 128.397C101.678 129.796 100.16 127.972 100.43 126.501C100.998 123.999 103.033 122.312 105.115 120.818ZM81.2765 122.313C81.042 122.331 80.798 122.494 80.4246 122.796C78.6812 124.209 77.3116 125.967 76.6007 127.793C75.1 131.645 76.0794 135.988 79.4627 139.358C81.1815 141.07 81.7863 140.952 84.4208 137.413C86.6278 134.449 87.0865 130.621 85.7274 127.295C85.0642 125.672 83.8621 124.089 82.4204 122.941C81.8664 122.5 81.5781 122.288 81.2765 122.313ZM136.334 123.024L138.554 124.126C141.387 143.012 150.571 154.534 160.862 162.478L160.843 164.229L158.081 162.067L154.774 165.564L152.094 163.344L153.099 162.358L154.626 163.339L156.578 161.129L152.735 157.666L149.385 160.602L146.595 157.7L147.442 156.984L149.371 158.686L151.529 156.752L147.796 152.519L144.456 155.078L142.125 151.953L143.139 151.344L144.36 153.037L146.935 151.416L144.212 147.184L140.33 149.196L138.344 145.578L139.473 145.032L140.761 147.063L143.178 145.888L140.746 140.896L136.779 142.221L135.319 138.294L136.454 137.873L137.454 140.195L140.139 139.324L138.315 133.95L134.214 135.121L133.199 131.169L134.467 130.893L135.133 133.026L137.952 132.456L136.918 127.338L132.721 127.875C132.581 127.006 131.962 124.663 131.974 123.778L133.266 123.672L133.673 125.926L136.497 125.829L136.334 123.024ZM81.4249 123.435C82.9639 123.648 84.843 126.642 85.2679 127.73C86.0786 129.88 86.1468 132.372 85.4067 134.303C84.8011 135.883 82.9908 138.684 81.8413 139.474C80.9134 139.982 80.1366 139.605 78.8118 137.786C76.1939 134.19 75.6876 129.865 77.7541 126.903C79.3324 124.64 80.5029 123.433 81.4249 123.435ZM139.311 124.368L140.426 124.9C141.795 135.844 148.212 150.863 160.843 159.847V161.221C151.02 154.096 142.003 141.807 139.311 124.368ZM81.2288 125.113C76.8303 128.464 77.5341 133.71 80.8657 137.244C84.4549 134.843 85.7243 128.359 81.2288 125.113ZM14.106 125.336C16.5871 125.278 18.1602 126.151 18.9158 127.89C20.0895 130.589 20.2492 131.102 20.4904 132.518C20.6281 133.328 20.841 134.55 20.9594 135.232C22.2476 142.569 21.2996 145.333 16.8914 146.478C15.5761 146.819 13.7414 146.93 12.4597 146.618C12.1232 146.536 10.8916 146.529 9.92315 146.497C8.00116 146.434 7.41356 146.229 6.44856 145.438C6.10057 145.153 5.76587 144.925 5.34777 144.857C3.14847 144.505 2.49168 142.469 4.16087 140.964C5.11147 140.106 5.20617 139.993 5.11807 139.846C5.06807 139.764 4.66247 139.694 4.21347 139.692C1.99648 139.678 2.01908 137.373 4.25147 135.725C5.31267 134.943 5.79087 134.205 5.08897 134.386C3.06727 134.867 2.35398 131.881 4.46717 130.955C5.59217 130.319 6.39997 129.787 5.31397 129.728C4.40267 129.807 3.66077 129.128 3.93957 128.326C4.27737 127.355 6.12777 126.471 7.19486 126.801C8.02866 127.059 8.84166 127.296 9.36286 126.917C10.6277 125.999 11.1937 125.584 12.2822 125.437C12.9134 125.352 13.5751 125.333 14.106 125.336ZM87.8428 125.897L98.0368 126.095L97.7353 136.199L88.1347 136.016C88.1347 136.016 90.2395 131.501 87.8428 125.897ZM64.9996 126.129L74.7629 126.25C73.1543 130.058 73.7548 133.971 74.3465 136.175L64.789 136.025L64.9996 126.129ZM81.3053 126.144C83.9284 127.688 84.6502 133.314 81.0062 136.205C77.5379 132.603 78.2326 128.217 81.3053 126.144ZM57.2176 130.535L59.8355 130.782L58.9023 134.569C58.9023 134.569 59.3239 134.12 59.4622 134.076C62.8251 132.48 63.0666 136.097 59.6441 139.363C58.8875 140.083 57.6723 141.07 57.6723 141.07C57.6723 141.07 56.72 139.615 55.9637 138.299C55.104 136.975 54.5196 135.558 54.6667 134.806C54.8802 133.715 56.1791 132.993 57.007 133.66C57.4149 133.988 57.8876 134.487 57.8876 134.487L57.2176 130.535ZM103.957 133.312C103.957 133.312 105.055 134.45 105.723 135.188C108.034 137.744 108.431 140.135 107.259 140.862C106.253 141.328 105.629 141.009 104.818 140.345C104.987 141.929 106.232 144.267 106.202 144.272L102.751 144.833C102.751 144.833 103.603 141.66 103.531 140.461C103.531 140.461 102.822 141.011 102.507 141.148C100.254 141.979 99.1376 139.392 100.99 136.814C102.543 134.65 103.957 133.312 103.957 133.312ZM151.094 138.1C153.409 138.1 155.286 139.997 155.286 142.337C155.286 144.678 153.409 146.575 151.094 146.575C148.778 146.575 146.901 144.678 146.901 142.337C146.901 139.997 148.778 138.1 151.094 138.1ZM153.161 140.04C152.98 140.081 152.833 140.501 152.812 141.428C152.603 143.329 151.038 144.094 149.328 143.213C148.636 142.857 148.047 142.329 148.045 142.734C148.045 142.951 148.599 144.084 148.993 144.471C150.443 145.788 153.974 145.476 153.893 142.405C153.855 140.96 153.462 139.972 153.161 140.04ZM77.041 141.631C77.4962 141.6 78.0734 141.791 78.4433 142.178C79.5895 142.969 79.8067 143.98 79.879 147.794C79.943 151.158 79.879 151.24 80.4246 151.649C81.7693 152.648 82.5798 151.125 82.1954 147.716C81.8253 144.435 82.9951 142.049 84.9568 142.062C85.9221 142.068 86.1016 142.641 85.3684 143.373C84.5947 144.145 84.4079 145.088 84.6505 146.986C85.2725 151.849 84.7345 154.236 82.7122 155.223C80.6028 156.253 77.8898 155.07 77.4143 152.379C77.1095 150.584 77.1122 148.455 77.3233 146.449C77.3613 144.339 77.3133 144.099 76.5862 142.889C76.0717 142.077 76.4555 141.671 77.041 141.631ZM23.9937 143.208C25.1599 143.205 26.371 143.889 27.095 145.399C28.8417 149.044 25.0576 152.042 21.5864 152.277C15.5608 152.368 8.39956 151.49 2.35178 150.676L2.44778 147.232C7.99796 147.557 14.2559 148.012 20.998 148.33C20.2302 145.128 22.0499 143.212 23.9937 143.208ZM55.6861 143.914L59.0411 144.664L56.9065 148.19C57.5398 147.913 57.9774 147.72 58.6103 147.953C59.977 148.451 59.9954 150.202 58.9932 151.837C58.2009 153.025 55.9717 154.444 54.4514 155.315C53.597 153.461 51.7094 150.215 52.4604 148.442C52.859 147.5 53.9636 147.042 54.9922 147.557C55.3325 147.762 55.9829 148.098 55.9829 148.098L55.6861 143.914ZM63.6164 144.011L73.8392 144.132C72.3533 154.578 69.446 168.526 63.7169 179.896L61.3096 180.525C66.3619 169.228 69.7226 158.632 71.2931 146.787H66.1817C63.2413 159.5 58.8913 171.281 52.2019 181.517L49.2299 180.54C56.377 169.087 62.0412 156.306 63.6164 144.011ZM86.9334 144.195H98.3288C100.425 165.464 107.535 179.98 118.119 194.339C118.119 194.339 117.45 194.491 117.056 194.32C115.959 192.936 114.953 192.09 113.309 191.665C104.414 178.722 98.4465 160.629 97.0078 146.787H90.2309C91.0024 164.172 95.768 178.426 102.11 192.23L98.6686 192.869C93.5757 180.515 87.9925 169.763 86.9334 144.195ZM104.665 146.821C105.603 147.554 106.616 148.275 107.57 148.974C110.136 150.793 110.103 154.233 107.608 154.217C107.344 154.215 106.728 154.178 106.728 154.178C106.728 154.178 107.747 156.433 108.388 157.574C107.349 157.854 105.177 158.265 105.177 158.265C105.177 158.265 105.488 156.051 105.426 154.217C105.426 154.217 105.009 154.687 104.665 154.851C103.01 155.549 101.611 154.09 101.817 152.364C102.096 150.036 104.665 146.821 104.665 146.821ZM28.5356 147.237L34.1447 150.052C30.3222 158.846 25.9453 167.079 19.6146 173.337L19.7773 153.017C23.233 152.916 26.7779 152.884 28.5356 147.237ZM66.89 147.556H70.3407C68.8095 163.779 58.2037 185.725 56.2126 188.371L55.5569 188.869C55.5969 188.847 54.1987 183.894 52.6088 182.112C58.5923 173.955 64.8616 158.281 66.89 147.556ZM91.1546 147.556H96.3665C97.9901 160.483 101.944 174.448 111.964 191.408C111.964 191.408 110.96 191.51 110.183 191.041C108.476 189.971 107.289 191.387 106.269 191.332C104.674 191.245 104.411 191.149 102.765 191.544C94.4968 173.918 92.1507 160.044 91.1546 147.556ZM34.8578 150.459L36.7195 151.344C32.7165 160.701 29.131 168.137 19.6481 177.265L19.6141 174.547C26.276 168.026 30.7653 159.432 34.8578 150.459ZM37.5667 151.765C38.448 152.1 39.4483 152.651 40.2803 153.104C40.5588 153.217 40.4837 153.469 40.4861 153.733C40.134 154.622 38.5804 155.012 37.9926 155.184C37.2829 155.389 36.5828 155.532 36.4563 155.562C35.6449 155.754 35.9018 154.932 36.7818 153.133C37.1779 152.323 37.3341 151.783 37.5667 151.765ZM41.2853 153.748C41.8427 153.713 44.0928 154.97 44.5733 155.421C44.7439 155.954 44.2597 156.795 43.5491 158.348C42.4567 160.736 42.2392 160.789 41.9123 158.827C41.8553 158.489 41.5301 157.372 41.3332 156.631C40.8766 154.911 40.8336 153.922 41.2853 153.748ZM45.3582 155.678C45.3582 155.678 46.6656 156.32 47.0907 156.602C41.2513 174.277 25.7004 188.886 25.7837 188.55L23.3572 187.108C33.7061 177.658 41.2909 166.498 45.3582 155.678ZM39.1843 155.929C39.7492 155.941 39.2573 156.643 38.4951 158.343C37.7721 160.007 37.5349 160.598 36.8583 160.863C35.8884 161.218 34.4956 161.229 33.2593 161.448C32.7303 161.541 32.9521 161.132 33.7666 159.46C34.7224 157.498 34.7758 157.091 36.2744 156.684C37.1407 156.547 38.3066 155.922 39.1843 155.929ZM41.2327 159.441C41.8347 161.63 41.822 162.062 41.4193 162.822C40.664 164.248 39.6765 165.912 39.4045 166.363C38.724 167.489 38.5306 167.255 38.1266 164.515C37.876 162.815 37.6564 162.051 37.8421 161.311C38.1816 160.474 39.1941 158.501 39.7667 157.346C40.5863 154.883 41.0254 159.223 41.2327 159.441ZM51.9818 157.53L55.0448 158.546L52.6423 161.477C52.6423 161.477 53.6501 161.294 53.767 161.342C56.1773 161.504 55.777 163.925 53.9105 165.39C53.1376 166.106 49.3256 167.857 49.3256 167.857C48.9173 165.69 48.0763 164.306 48.2775 162.082C48.4189 160.884 48.5247 159.804 49.9765 159.77C50.7403 159.728 51.0498 160.518 51.5463 161.153L51.9818 157.53ZM107.508 160.157C107.508 160.157 109.353 161.119 111.064 162.449C113.295 164.185 113.677 166.224 111.447 167.011C111.189 167.102 110.456 167.064 110.456 167.064C111.07 168.144 112.529 169.753 112.529 169.753C111.798 170.27 110.767 170.675 109.624 171.035C109.624 171.035 109.34 168.344 109.068 167.306C109.068 167.306 108.773 167.893 108.408 168.123C106.259 169.474 104.573 166.928 105.728 163.707C106.429 161.751 107.508 160.157 107.508 160.157ZM83.8896 160.607C89.2543 160.475 86.1117 169.354 83.4302 168.781C83.3842 168.7 85.6442 163.529 82.6021 162.706C81.2066 162.328 82.4096 160.589 83.8896 160.607ZM75.0931 161.235C76.76 161.225 77.9728 162.413 76.3805 163.16C73.8745 164.337 75.3666 167.155 75.4233 168.752C75.4583 169.728 73.1913 167.901 72.7097 165.918C72.0871 163.353 72.3752 161.455 75.0931 161.235ZM35.413 162.169C35.7829 162.167 36.061 162.197 36.1548 162.27C36.3115 162.689 35.5627 163.999 34.4701 165.676C33.8888 166.568 33.6393 166.819 33.2832 167.03C32.4382 167.51 31.2519 167.385 30.2633 167.456C28.7892 167.474 29.0484 167.445 30.6797 164.878C31.4085 163.731 31.8687 162.792 32.3021 162.493C32.3891 162.437 34.3039 162.172 35.413 162.169ZM37.3465 164.021C37.3465 167.233 38.4261 168.285 37.6336 169.299C36.6645 170.876 35.427 172.603 34.9775 173.149C34.2203 174.068 34.3047 173.894 34.1064 171.49C33.9627 169.746 33.8057 168.58 34.0294 168.036C34.6776 166.462 35.4481 165.709 36.2501 164.036C36.8788 162.688 37.3465 162.913 37.3465 164.021ZM79.6924 165.632C81.2509 165.654 82.2129 167.327 82.1428 168.863L82.0758 170.334C84.089 169.553 86.5882 170.312 86.6989 172.307C86.8867 175.691 84.4203 175.298 82.3342 175.156C82.5447 175.236 82.8522 178.215 81.6116 179.355C79.6642 181.557 76.0329 179.307 76.9453 176.075C77.1348 175.404 77.175 174.982 77.175 174.982C77.175 174.982 75.8726 175.456 75.4138 175.437C71.4635 175.266 71.766 169.621 75.7344 170.285C76.5451 170.421 77.0936 170.619 77.0936 170.619C77.0936 170.619 77.0076 170.262 76.8735 169.758C76.2963 167.585 77.5086 165.602 79.6924 165.632ZM158.713 166.638L160.843 167.876V170.276L157.813 168.012L158.713 166.638ZM31.0482 168.244C31.8875 168.236 32.5469 168.302 32.417 168.505C32.417 168.933 30.579 171.515 29.4928 172.694C28.5669 173.699 28.4358 173.556 26.1713 173.444C25.2829 173.4 24.7022 173.393 24.726 173.154C25.7694 171.771 27.2068 169.991 28.2006 168.505C28.591 168.385 29.9693 168.255 31.0482 168.244ZM33.1205 169.371C33.2772 169.369 33.3252 169.712 33.3215 170.459C33.3215 171.024 33.3985 172.769 33.4794 173.526C33.6271 174.903 33.6274 174.901 33.0439 175.722C32.3325 176.494 31.6066 177.632 30.6893 178.518C29.3113 180.061 29.4531 180.149 29.4736 176.849C29.4896 174.271 29.2976 174.272 29.8134 173.666C30.097 173.334 30.9733 172.25 31.5507 171.403C32.4275 170.116 32.8915 169.375 33.1205 169.371ZM46.2531 169.826L49.0863 171.354L46.2483 174.261C46.2483 174.261 46.9581 174.258 47.196 174.305C49.019 174.663 48.8824 176.615 47.0476 178.073C45.9209 178.792 42.0511 180.215 42.0511 180.215C41.9183 178.573 41.5745 177.063 41.6395 175.301C41.6665 174.488 41.7405 173.605 42.3574 172.902C42.7839 172.425 43.4969 172.148 44.4967 172.8C45.0218 173.272 45.2959 173.807 45.2959 173.807L46.2531 169.826ZM79.6876 170.817C78.5775 170.817 77.6775 171.727 77.6775 172.849C77.6775 173.971 78.5775 174.88 79.6876 174.88C80.7978 174.88 81.6977 173.971 81.6977 172.849C81.6977 171.727 80.7978 170.817 79.6876 170.817ZM111.361 171.296C111.361 171.296 115.07 172.705 116.74 174.252C118.3 175.567 117.566 177.733 116.018 177.778C115.905 177.778 115.247 177.681 115.247 177.681C115.772 178.488 117.53 180.467 117.53 180.467L114.663 181.642C114.663 181.642 114.204 179.412 113.85 178.16C112.85 180.492 110.385 178.975 110.222 177.521C109.824 175.392 110.72 173.312 111.361 171.296ZM79.6876 171.475C80.4594 171.475 81.0851 172.108 81.0851 172.888C81.0851 173.668 80.4594 174.3 79.6876 174.3C78.9158 174.3 78.2901 173.668 78.2901 172.888C78.2901 172.108 78.9158 171.475 79.6876 171.475ZM24.9557 174.363C25.9551 174.354 27.2017 174.4 27.7603 174.435C28.1856 174.765 27.2962 175.79 25.5779 177.613C24.2 179.075 23.9969 178.872 22.3282 178.885C19.5283 178.908 19.4584 178.927 20.7441 177.449C22.1523 175.83 22.974 174.787 23.6252 174.45C23.8439 174.392 24.3561 174.369 24.9557 174.363ZM28.3681 175.785C28.6643 175.725 28.5836 176.489 28.5356 178.218L28.4546 181.149L26.277 183.268C23.7564 185.547 24.0576 185.69 24.0755 183.558C24.0895 181.863 24.0755 180.672 24.4344 179.92C25.535 178.58 26.6814 177.393 27.9329 176.114C28.1303 175.917 28.2694 175.805 28.3681 175.785ZM83.7269 176.515C84.3333 176.464 85.8806 179.139 86.2682 181.381C87.1529 186.501 90.187 188.927 92.3224 186.871C93.1908 185.663 93.2884 186.981 93.2461 187.611C92.798 194.097 85.5261 191.397 84.6984 184.956C82.1462 186.63 79.765 183.248 81.2861 183.301C84.8836 182.146 83.9003 178.808 83.7269 176.515ZM75.3037 176.564C75.6598 178.807 71.6582 182.649 69.4074 179.954C68.2622 178.583 69.3058 175.756 70.7618 177.497C72.3714 178.701 73.9318 177.304 75.3037 176.564ZM20.3229 179.64C21.1457 179.622 22.3355 179.78 22.8547 179.708C23.589 179.783 23.0642 180.14 21.4763 181.604C20.1088 182.864 19.7183 183.425 19.5619 182.876C19.4859 182.024 19.5189 181.011 19.5239 179.809C19.6498 179.691 19.9489 179.648 20.3229 179.64ZM38.9785 181.13L41.4193 182.929L38.9976 185.183C41.1692 185.075 41.3627 187.132 40.5387 188.279C40.005 189.083 37.9459 189.929 35.8868 190.267C34.6475 190.47 33.6374 190.62 33.6374 190.62C33.6374 190.62 33.5904 189.655 33.5564 188.051C33.4854 184.772 33.7066 183.481 34.9539 182.842C35.8469 182.384 37.3585 183.103 37.7298 183.94C37.8525 184.217 38.1749 184.699 38.1749 184.699L38.9785 181.13ZM23.271 181.309C23.281 181.307 23.287 181.309 23.29 181.314C23.4278 181.502 22.931 186.837 22.931 186.837L19.3942 184.825C19.3942 184.825 22.974 181.372 23.271 181.309ZM116.874 181.938C119.393 183.137 121.281 182.904 122.976 184.39C124.452 185.17 124.015 187.32 122.938 187.8C122.451 187.95 121.646 187.868 121.646 187.868C122.537 188.979 124.489 190.383 124.489 190.383L121.388 191.694C121.388 191.694 120.964 189.58 120.569 188.429C120.005 190.142 118.093 190.1 117.004 189.294C116.232 188.697 115.913 186.696 116.281 184.961C116.378 184.503 116.874 181.938 116.874 181.938ZM100.31 231.608C69.7289 238.932 44.8888 234.403 42.4244 233.538L40.4765 236.474C40.239 236.973 40.0933 238.464 38.7727 238.868L36.7913 241.858L37.179 242.274L35.4226 243.821L35.8485 244.339L34.5706 246.216L34.0681 246.162L31.1104 250.704L31.5603 251.212L24.769 261.955L116.644 261.984C111.304 251.803 105.591 241.821 100.31 231.608ZM99.755 232.929L100.301 234.462C98.7812 234.273 97.0071 234.18 95.2035 234.099C96.7886 233.768 98.3764 233.364 99.755 232.929ZM94.4186 234.264C91.4962 235.619 89.7456 237.247 88.4027 238.965C86.7309 237.653 84.6042 236.723 82.0662 236.14L94.4186 234.264ZM42.7881 235.008L44.0899 235.158C44.0899 235.158 43.6537 235.501 43.3433 235.429C43.1053 235.375 42.7881 235.008 42.7881 235.008ZM101.315 235.773L102.143 237.427C100.153 236.361 91.641 233.92 89.2259 242.472C86.6845 239 76.2055 233.966 70.8911 244.668C69.3796 241.769 60.5812 233.427 52.5561 244.058C49.3939 237.451 46.7509 236.897 40.9455 237.799C45.0713 233.792 50.8766 237.963 53.3362 241.374C60.2599 235.571 66.0491 237.315 71.1064 242.037C77.6325 234.855 84.1405 236.585 88.7186 240.189C91.9348 235.406 95.0766 233.964 101.315 235.773ZM47.8612 235.816C51.9754 236.377 56.0897 236.632 60.204 236.837C57.8228 237.72 55.381 238.481 53.4415 240.257C51.9726 238.183 49.9305 236.979 47.8612 235.816ZM77.5435 236.479C75.298 237.548 72.8782 239.154 70.9389 240.842C68.8454 239.119 66.691 237.629 64.3439 236.88C68.6498 237.094 73.4205 236.903 77.5435 236.479ZM103.885 239.874C103.885 239.874 103.055 240.016 102.789 240.087C99.1562 241.063 99.9473 246.235 103.684 246.235C104.039 246.235 104.924 246.095 104.924 246.095C104.853 249.597 105.906 250.452 109.446 250.254L115.448 261.099L26.6691 260.712L32.3069 251.599C35.1422 251.935 36.925 250.341 36.2936 247.908C36.2936 247.908 38.0398 248.447 38.5286 248.45C41.738 248.471 42.5676 243.493 39.4906 242.631C39.1484 242.535 38.2891 242.44 38.184 242.409C39.5911 238.857 43.4565 240.953 44.5637 242.428C47.0558 240.358 49.8103 241.285 50.9911 243.966C50.9911 243.966 50.5264 243.704 50.3833 243.599C47.4647 241.441 44.7497 245.91 47.6075 247.971C47.8887 248.174 48.4833 248.349 48.4833 248.349C48.4833 248.349 48.136 248.635 47.8181 249.176C46.3345 251.698 48.7234 254.769 51.6085 253.979C53.8232 253.103 53.8551 251.419 53.8531 249.568C53.8531 249.568 54.6183 249.627 55.3032 249.635C57.961 249.667 58.7226 246.227 57.096 244.628C56.2173 243.763 55.0679 243.831 54.4992 243.72C57.5632 240.679 59.6403 242.778 61.8026 244.179C62.1296 244.171 65.555 240.014 69.6276 244.097C67.6511 243.574 65.627 244.869 65.5998 246.949C65.6388 248.287 66.5857 249.47 68.6332 249.564C68.4128 250.236 68.2659 250.738 68.254 251.391C68.214 253.575 69.8931 254.933 72.0253 254.598C73.8072 254.368 75.1246 252.309 74.4901 250.598C74.2038 249.826 73.8105 249.543 73.8105 249.543C78.6092 250.15 78.5253 244.007 74.7946 243.635C73.91 243.546 73.2284 243.934 72.3364 244.76C74.5308 240.225 78.5437 241.135 80.0466 242.989C82.108 241.476 84.9501 239.409 88.3501 243.091C87.7898 242.971 87.0004 242.943 86.3158 243.127C83.6244 243.849 83.6126 247.308 85.7464 248.36C86.3466 248.657 87.0833 248.829 87.8763 248.799C87.1664 251.705 90.3598 253.781 92.6199 252.389C94.2394 251.392 94.6634 249.037 92.9111 246.888C95.8606 246.755 96.1513 243.039 94.4474 241.737C93.1115 240.715 91.5387 241.201 90.3984 242.549C90.0317 241.483 92.9473 237.774 97.0653 240.445C99.2465 238.597 101.41 238.028 103.885 239.874ZM105.173 242.776L106.326 244.895C105.558 244.972 104.459 244.141 105.173 242.776ZM90.2884 244.929C91.01 244.929 91.5949 245.52 91.5949 246.249C91.5949 246.979 91.01 247.57 90.2884 247.57C89.5668 247.57 88.9818 246.979 88.9818 246.249C88.9818 245.52 89.5668 244.929 90.2884 244.929ZM36.4037 245.006C36.5778 245.715 36.6541 246.422 35.3795 246.559L36.4037 245.006ZM51.4123 246.283C52.0731 246.283 52.6088 246.825 52.6088 247.493C52.6088 248.16 52.0731 248.702 51.4123 248.702C50.7515 248.702 50.2158 248.16 50.2158 247.493C50.2158 246.825 50.7515 246.283 51.4123 246.283ZM71.3266 246.661C72.027 246.661 72.5948 247.234 72.5948 247.942C72.5948 248.65 72.027 249.224 71.3266 249.224C70.6261 249.224 70.0583 248.65 70.0583 247.942C70.0583 247.234 70.6261 246.661 71.3266 246.661Z" fill="black"/>
<path fill-rule="evenodd" clip-rule="evenodd" d="M30.0986 8.76123C20.9137 21.8763 11.0862 29.4235 10.9229 39.6555C10.8679 42.9687 12.6572 48.6002 18.261 49.6781C21.8967 50.3742 26.9024 47.4278 27.0069 41.4419C26.9909 40.2502 28.2672 40.2812 28.2552 41.9142C28.084 46.6358 26.5913 52.1329 24.0825 56.6078H36.1146C33.6058 52.1329 32.1131 46.6358 31.9419 41.9142C31.9299 40.2812 33.2061 40.2502 33.1902 41.4419C33.2947 47.4278 38.3004 50.3742 41.9361 49.6781C47.5399 48.6002 49.329 42.9687 49.2742 39.6555C49.1109 29.4235 39.2834 21.8763 30.0986 8.76123Z" fill="black"/>
<path fill-rule="evenodd" clip-rule="evenodd" d="M133.169 254.395C123.984 241.28 114.157 233.733 113.993 223.501C113.938 220.187 115.728 214.556 121.332 213.478C124.967 212.782 129.973 215.728 130.077 221.714C130.061 222.906 131.338 222.875 131.326 221.242C131.155 216.52 129.662 211.023 127.153 206.548H139.185C136.676 211.023 135.184 216.52 135.012 221.242C135 222.875 136.277 222.906 136.261 221.714C136.365 215.728 141.371 212.782 145.007 213.478C150.611 214.556 152.4 220.187 152.345 223.501C152.182 233.733 142.354 241.28 133.169 254.395Z" fill="black"/>
</svg>
